<?xml version="1.0" encoding="utf-8"?>
<!-- Generator: Adobe Illustrator 21.1.0, SVG Export Plug-In . SVG Version: 6.00 Build 0)  -->
<svg version="1.1" xmlns="http://www.w3.org/2000/svg" xmlns:xlink="http://www.w3.org/1999/xlink" x="0px" y="0px"
	 viewBox="0 0 512 512" style="enable-background:new 0 0 512 512;" xml:space="preserve">
<style type="text/css">
	.st0{fill:#FEBE07;}
	.st1{fill:#B18300;}
	.st2{fill:#5AA2FF;}
	.st3{fill:#2B67B3;}
	.st4{fill:#FFE5CF;}
	.st5{fill:#CBE6FE;}
</style>
<g id="Layer_2">
</g>
<g id="Layer_1">
	<path class="st0" d="M121.5,255h96.5c22.2,0,40.2-18,40.2-40.2v-24.7c0-39.6-31.8-95.9-41.3-95.9h-94.3c-9.5,0-41.3,56.3-41.3,95.9
		v24.7C81.3,237,99.3,255,121.5,255z"/>
	<path class="st0" d="M232.2,32.2l-16.8,8.4c-2.5,1.3-5.6,0.5-7.4-1.7l-10.6-14.2c-2.2-2.9-6.3-3.2-8.9-0.6l-14,14
		c-2.5,2.5-6.7,2.2-8.9-0.6l-9.5-12.7c-2.2-2.9-6.3-3.2-8.9-0.6l-16.3,16.3c-1.5,1.5-3.7,2.1-5.8,1.5l-24.4-7
		c-5-1.4-9.3,3.9-6.8,8.5l27.6,50.9h96.5l22.3-54.5C242.4,34.7,237.1,29.8,232.2,32.2L232.2,32.2z"/>
	<path class="st1" d="M217.9,255c22.2,0,40.2-18,40.2-40.2v-24.7c0-39.6-31.8-95.9-41.3-95.9h-94.3c-5.4,0,51.1,3.5,79.3,48.2
		C223.4,176.6,217.9,255,217.9,255z"/>
	<path class="st1" d="M232.2,32.2l-11.4,5.7c-22.1,22.2-49.8,38-80.3,45.6l-21.9,5.5l2.9,5.3h96.5l22.3-54.5
		C242.4,34.7,237.1,29.8,232.2,32.2z"/>
	<path class="st2" d="M282.2,29.9h80.4V255h-80.4V29.9z"/>
	<path class="st3" d="M362.6,126.4l-32.2,32.2l-32.2,32.2h16.1V255h48.2V126.4z"/>
	<path class="st2" d="M236.4,126.4h-26.5V255h72.3V126.4H236.4z"/>
	<path class="st2" d="M378.7,214.8h32.2V255h-32.2V214.8z"/>
	<path class="st4" d="M464.8,238.9c-8.4,0-16.1,4.8-19.9,12.3L443,255l-24.1,48.2l-56.3,24.1c0-17.8-14.4-32.2-32.2-32.2H214.7
		c-45,0-88.8,14-125.4,40.2v120.6h189.7c38.8,0,76.9-10.9,109.8-31.5c49.8-31.1,84-81.9,94.2-139.7l3.5-19.8
		C489,251.4,478.6,238.9,464.8,238.9z"/>
	<path class="st5" d="M443,190.7h-96.5V255h32.2v-40.2h32.2V255H443V190.7z"/>
	<path class="st3" d="M81.3,295.2H33.1c-4.4,0-8,3.6-8,8v176.8c0,4.4,3.6,8,8,8h48.2c4.4,0,8-3.6,8-8V303.2
		C89.3,298.8,85.7,295.2,81.3,295.2z"/>
	<path class="st1" d="M459.1,190.7l-64.3-64.3l-32.2,32.2l-32.2,32.2H459.1z"/>
	<path class="st3" d="M258.1,126.4h24.1V255h-24.1V126.4z"/>
	<path d="M33.1,496.1h48.2c8.9,0,16.1-7.2,16.1-16.1V464h181.7c40.4,0,79.8-11.3,114.1-32.7c51.6-32.3,87.3-85.2,97.9-145.1
		l3.5-19.8c1.6-8.8-0.8-17.8-6.6-24.7s-14.2-10.8-23.2-10.8c-4.9,0-9.6,1.2-13.7,3.3v-35.5h8c3.2,0,6.2-2,7.4-5
		c1.2-3,0.6-6.5-1.7-8.8l-64.3-64.3c-3.1-3.1-8.2-3.1-11.4,0l-18.4,18.4V29.9c0-4.4-3.6-8-8-8h-80.4c-4.4,0-8,3.6-8,8v88.4h-32.6
		c-6.1-13.5-10.6-21.3-14.3-25.9l20.3-49.6c2.3-5.4,0.9-11.5-3.4-15.5c-4.3-4-10.5-4.9-15.7-2.3l-15.2,7.6l-9.6-12.8
		c-2.4-3.2-6.1-5.3-10.1-5.5c-4-0.3-8,1.2-10.9,4l-12.2,12.2l-8-10.7c-2.4-3.2-6.1-5.3-10.2-5.5c-4-0.3-8,1.2-10.9,4l-15.4,15.4
		l-23.2-6.6c-5.4-1.6-11.2,0.3-14.7,4.7c-3.5,4.4-4.1,10.4-1.4,15.4l24.3,44.9c-17.1,15.4-37.9,58.7-37.9,98.1v24.7
		c0,26.6,21.6,48.2,48.2,48.2h88.4h72.3h64.3H430l-17,34l-44.2,18.9c-5-16.6-20.2-28.8-38.3-28.8H214.8
		c-41.8,0-82.1,11.5-117.4,33.3v-17.2c0-8.9-7.2-16.1-16.1-16.1H33.1c-8.9,0-16.1,7.2-16.1,16.1v176.8
		C17,488.9,24.2,496.1,33.1,496.1L33.1,496.1z M122.9,49.6c4.9,1.4,10.1,0,13.7-3.5l14.6-14.6l8,10.7c2.4,3.2,6.1,5.3,10.2,5.5
		c4.1,0.3,8-1.2,10.8-4.1l12.2-12.2l9.2,12.2c4,5.4,11.3,7.1,17.4,4.1l11.7-5.9l-18.1,44.3h-21.8L201,65.7l-14.4-7.2l-13.8,27.7
		h-14.1l-11.2-23.3l-14.5,7l7.9,16.3h-14.6L103.4,44L122.9,49.6z M201.9,126.4V247h-80.4c-17.7,0-32.2-14.4-32.2-32.2v-24.7
		c0-43,26.6-83.1,34.2-87.9h91c1.3,1.6,4.3,5.8,9.2,16.1h-14C205.5,118.4,201.9,122,201.9,126.4L201.9,126.4z M217.9,134.4h56.3V247
		h-56.3V134.4z M394.8,137.8l44.9,44.9h-89.8L394.8,137.8z M290.3,38h64.3v117.2L324.8,185c-2.3,2.3-3,5.8-1.7,8.8
		c1.2,3,4.2,5,7.4,5h8V247h-48.2V38z M354.6,198.7H435V247h-16.1v-32.2c0-4.4-3.6-8-8-8h-32.2c-4.4,0-8,3.6-8,8V247h-16.1V198.7z
		 M402.8,247h-16.1v-24.1h16.1V247z M214.8,303.2h115.7c13.3,0,24.1,10.8,24.1,24.1c0,13.3-10.8,24.1-24.1,24.1H201.9v16.1h128.6
		c20.3,0,36.9-15.1,39.6-34.7l51.9-22.3c1.8-0.7,3.2-2.1,4-3.8l26-52c2.4-4.8,7.3-7.8,12.7-7.8c4.2,0,8.2,1.8,10.9,5.1
		c2.7,3.2,3.8,7.4,3.1,11.6l-3.5,19.8c-9.8,55.5-42.8,104.4-90.6,134.3c-31.7,19.8-68.2,30.3-105.6,30.3H97.4V339.7
		C132.1,315.9,172.6,303.2,214.8,303.2L214.8,303.2z M33.1,303.2h48.2l0,176.8H33.1L33.1,303.2z"/>
	<path d="M49.2,327.3h16.1v24.1H49.2V327.3z"/>
	<path d="M306.4,54.1h8v16.1h-8V54.1z"/>
	<path d="M330.5,54.1h8v16.1h-8V54.1z"/>
	<path d="M306.4,86.2h8v16.1h-8V86.2z"/>
	<path d="M330.5,86.2h8v16.1h-8V86.2z"/>
	<path d="M306.4,118.4h8v16.1h-8V118.4z"/>
	<path d="M330.5,118.4h8v16.1h-8V118.4z"/>
	<path d="M234,150.5h8v16.1h-8V150.5z"/>
	<path d="M258.1,150.5h8v16.1h-8V150.5z"/>
	<path d="M234,182.7h8v16.1h-8V182.7z"/>
	<path d="M258.1,182.7h8v16.1h-8V182.7z"/>
	<path d="M234,214.8h8v16.1h-8V214.8z"/>
	<path d="M258.1,214.8h8v16.1h-8V214.8z"/>
	<path d="M306.4,150.5h8v16.1h-8V150.5z"/>
	<path d="M330.5,150.5h8v16.1h-8V150.5z"/>
	<path d="M177.8,142.5h-8v-8h-16.1v8h-8c-4.4,0-8,3.6-8,8v24.1c0,4.4,3.6,8,8,8h24.1v8h-32.2v8c0,4.4,3.6,8,8,8h8v8h16.1v-8h8
		c4.4,0,8-3.6,8-8v-24.1c0-4.4-3.6-8-8-8h-24.1v-8h32.2v-8C185.8,146.1,182.2,142.5,177.8,142.5z"/>
	<path d="M426.9,29.9H443V46h-16.1V29.9z"/>
	<path d="M443,13.9h16.1v16.1H443V13.9z"/>
	<path d="M443,46h16.1v16.1H443V46z"/>
	<path d="M426.9,94.2H443v16.1h-16.1V94.2z"/>
	<path d="M17,86.2h16.1v16.1H17V86.2z"/>
	<path d="M33.1,70.1h16.1v16.1H33.1V70.1z"/>
	<path d="M49.2,86.2h16.1v16.1H49.2V86.2z"/>
	<path d="M33.1,102.3h16.1v16.1H33.1V102.3z"/>
	<path d="M17,150.5h16.1v16.1H17V150.5z"/>
	<path d="M49.2,13.9h16.1v16.1H49.2V13.9z"/>
</g>
</svg>
