<?xml version="1.0" encoding="utf-8"?>
<!-- Generator: Adobe Illustrator 21.1.0, SVG Export Plug-In . SVG Version: 6.00 Build 0)  -->
<svg version="1.1" xmlns="http://www.w3.org/2000/svg" xmlns:xlink="http://www.w3.org/1999/xlink" x="0px" y="0px"
	 viewBox="0 0 512 512" style="enable-background:new 0 0 512 512;" xml:space="preserve">
<style type="text/css">
	.st0{fill:#FFFFFF;}
	.st1{fill:#FEBE07;}
	.st2{fill:#B18300;}
	.st3{fill:#5AA2FF;}
	.st4{fill:#2B67B3;}
	.st5{fill:#FFE5CF;}
	.st6{fill:#CBE6FE;}
</style>
<g id="Layer_2">
	<circle class="st0" cx="252.2" cy="255" r="246"/>
</g>
<g id="Layer_1">
	<path class="st1" d="M156.1,255h71.6c16.5,0,29.8-13.4,29.8-29.8v-18.3c0-29.4-23.6-71.2-30.6-71.2h-70c-7,0-30.6,41.8-30.6,71.2
		v18.3C126.3,241.6,139.7,255,156.1,255z"/>
	<path class="st1" d="M238.3,89.6l-12.5,6.2c-1.9,0.9-4.2,0.4-5.5-1.3L212.5,84c-1.6-2.1-4.7-2.4-6.6-0.5l-10.4,10.4
		c-1.9,1.9-5,1.7-6.6-0.5l-7.1-9.4c-1.6-2.1-4.7-2.4-6.6-0.5l-12.1,12.1c-1.1,1.1-2.8,1.6-4.3,1.1l-18.1-5.2c-3.7-1.1-6.9,2.9-5,6.3
		l20.5,37.8h71.6l16.6-40.5C245.9,91.5,241.9,87.8,238.3,89.6L238.3,89.6z"/>
	<path class="st2" d="M227.7,255c16.5,0,29.8-13.4,29.8-29.8v-18.3c0-29.4-23.6-71.2-30.6-71.2h-70c-4,0,37.9,2.6,58.9,35.8
		C231.8,196.8,227.7,255,227.7,255z"/>
	<path class="st2" d="M238.3,89.6l-8.4,4.2c-16.4,16.4-37,28.2-59.6,33.8l-16.2,4.1l2.1,3.9h71.6l16.6-40.5
		C245.9,91.5,241.9,87.8,238.3,89.6z"/>
	<path class="st3" d="M275.5,87.9h59.7V255h-59.7V87.9z"/>
	<path class="st4" d="M335.1,159.5l-23.9,23.9l-23.9,23.9h11.9V255h35.8V159.5z"/>
	<path class="st3" d="M241.5,159.5h-19.7V255h53.7v-95.5H241.5z"/>
	<path class="st3" d="M347.1,225.2h23.9V255h-23.9V225.2z"/>
	<path class="st5" d="M411,243.1c-6.2,0-12,3.5-14.7,9.1l-1.4,2.8l-17.9,35.8l-41.8,17.9c0-13.2-10.7-23.9-23.9-23.9h-85.9
		c-33.4,0-65.9,10.4-93.1,29.8v89.5h140.8c28.8,0,57.1-8.1,81.5-23.4c37-23.1,62.4-60.8,70-103.7l2.6-14.7
		C429,252.3,421.2,243.1,411,243.1z"/>
	<path class="st6" d="M394.8,207.3h-71.6V255h23.9v-29.8h23.9V255h23.9V207.3z"/>
	<path class="st4" d="M126.3,284.8H90.5c-3.3,0-6,2.7-6,6v131.3c0,3.3,2.7,6,6,6h35.8c3.3,0,6-2.7,6-6V290.8
		C132.3,287.5,129.6,284.8,126.3,284.8z"/>
	<path class="st2" d="M406.7,207.3L359,159.5l-23.9,23.9l-23.9,23.9H406.7z"/>
	<path class="st4" d="M257.6,159.5h17.9V255h-17.9V159.5z"/>
	<path d="M90.5,434h35.8c6.6,0,11.9-5.4,11.9-11.9v-11.9h134.9c30,0,59.3-8.4,84.7-24.3c38.3-24,64.8-63.2,72.7-107.7l2.6-14.7
		c1.2-6.6-0.6-13.2-4.9-18.3c-4.3-5.1-10.5-8-17.2-8c-3.6,0-7.1,0.9-10.2,2.5v-26.3h6c2.4,0,4.6-1.5,5.5-3.7
		c0.9-2.2,0.4-4.8-1.3-6.5l-47.7-47.7c-2.3-2.3-6.1-2.3-8.4,0L341.1,169V87.9c0-3.3-2.7-6-6-6h-59.7c-3.3,0-6,2.7-6,6v65.6h-24.2
		c-4.5-10-7.9-15.8-10.6-19.2l15.1-36.9c1.7-4,0.7-8.6-2.5-11.5c-3.2-3-7.8-3.6-11.7-1.7l-11.3,5.6l-7.1-9.5
		c-1.8-2.4-4.5-3.9-7.5-4.1c-3-0.2-5.9,0.9-8.1,3l-9.1,9.1l-6-8c-1.8-2.4-4.5-3.9-7.5-4.1c-3-0.2-5.9,0.9-8.1,3l-11.5,11.5
		l-17.2-4.9c-4-1.2-8.3,0.2-10.9,3.5c-2.6,3.3-3,7.7-1,11.4l18,33.3c-12.7,11.4-28.1,43.6-28.1,72.8v18.3
		c0,19.7,16.1,35.8,35.8,35.8h65.6h53.7h47.7h61.9l-12.6,25.2l-32.8,14.1c-3.7-12.3-15-21.4-28.5-21.4h-85.9
		c-31.1,0-60.9,8.6-87.1,24.7v-12.8c0-6.6-5.4-11.9-11.9-11.9H90.5c-6.6,0-11.9,5.4-11.9,11.9v131.3C78.6,428.6,83.9,434,90.5,434
		L90.5,434z M157.2,102.5c3.6,1,7.5,0,10.2-2.6l10.8-10.8l6,8c1.8,2.4,4.6,3.9,7.6,4.1c3,0.2,5.9-0.9,8-3l9.1-9.1l6.8,9.1
		c3,4,8.4,5.3,12.9,3.1l8.7-4.3l-13.5,32.9h-16.2l7.6-15.2l-10.7-5.3l-10.3,20.6h-10.5l-8.3-17.3l-10.8,5.2l5.8,12.1h-10.8l-17-31.3
		L157.2,102.5z M215.8,159.5V249h-59.7c-13.2,0-23.9-10.7-23.9-23.9v-18.3c0-31.9,19.8-61.7,25.4-65.2h67.6c1,1.2,3.2,4.3,6.9,11.9
		h-10.4C218.5,153.6,215.8,156.2,215.8,159.5L215.8,159.5z M227.7,165.5h41.8V249h-41.8V165.5z M359,168l33.3,33.3h-66.7L359,168z
		 M281.4,93.9h47.7v87L307.1,203c-1.7,1.7-2.2,4.3-1.3,6.5c0.9,2.2,3.1,3.7,5.5,3.7h6V249h-35.8V93.9z M329.2,213.2h59.7V249h-11.9
		v-23.9c0-3.3-2.7-6-6-6h-23.9c-3.3,0-6,2.7-6,6V249h-11.9V213.2z M365,249H353v-17.9H365V249z M225.4,290.8h85.9
		c9.9,0,17.9,8,17.9,17.9c0,9.9-8,17.9-17.9,17.9h-95.5v11.9h95.5c15,0,27.4-11.2,29.4-25.7l38.6-16.5c1.3-0.6,2.4-1.6,3-2.8
		l19.3-38.6c1.8-3.6,5.4-5.8,9.4-5.8c3.1,0,6.1,1.4,8.1,3.8s2.8,5.5,2.3,8.6l-2.6,14.7c-7.3,41.2-31.8,77.5-67.3,99.7
		c-23.5,14.7-50.6,22.5-78.4,22.5H138.2v-80.3C164,300.2,194.1,290.8,225.4,290.8L225.4,290.8z M90.5,290.8h35.8l0,131.3H90.5V290.8
		z"/>
	<path d="M102.4,308.7h11.9v17.9h-11.9V308.7z"/>
	<path d="M293.4,105.8h6v11.9h-6V105.8z"/>
	<path d="M311.3,105.8h6v11.9h-6V105.8z"/>
	<path d="M293.4,129.7h6v11.9h-6V129.7z"/>
	<path d="M311.3,129.7h6v11.9h-6V129.7z"/>
	<path d="M293.4,153.6h6v11.9h-6V153.6z"/>
	<path d="M311.3,153.6h6v11.9h-6V153.6z"/>
	<path d="M239.7,177.4h6v11.9h-6V177.4z"/>
	<path d="M257.6,177.4h6v11.9h-6V177.4z"/>
	<path d="M239.7,201.3h6v11.9h-6V201.3z"/>
	<path d="M257.6,201.3h6v11.9h-6V201.3z"/>
	<path d="M239.7,225.2h6v11.9h-6V225.2z"/>
	<path d="M257.6,225.2h6v11.9h-6V225.2z"/>
	<path d="M293.4,177.4h6v11.9h-6V177.4z"/>
	<path d="M311.3,177.4h6v11.9h-6V177.4z"/>
	<path d="M197.9,171.5h-6v-6H180v6h-6c-3.3,0-6,2.7-6,6v17.9c0,3.3,2.7,6,6,6h17.9v6h-23.9v6c0,3.3,2.7,6,6,6h6v6h11.9v-6h6
		c3.3,0,6-2.7,6-6v-17.9c0-3.3-2.7-6-6-6H180v-6h23.9v-6C203.9,174.1,201.2,171.5,197.9,171.5z"/>
	<path d="M382.9,87.9h11.9v11.9h-11.9V87.9z"/>
	<path d="M394.8,76h11.9v11.9h-11.9V76z"/>
	<path d="M394.8,99.9h11.9v11.9h-11.9V99.9z"/>
	<path d="M382.9,135.7h11.9v11.9h-11.9V135.7z"/>
	<path d="M78.6,129.7h11.9v11.9H78.6V129.7z"/>
	<path d="M90.5,117.8h11.9v11.9H90.5V117.8z"/>
	<path d="M102.4,129.7h11.9v11.9h-11.9V129.7z"/>
	<path d="M90.5,141.6h11.9v11.9H90.5V141.6z"/>
	<path d="M78.6,177.4h11.9v11.9H78.6V177.4z"/>
	<path d="M102.4,76h11.9v11.9h-11.9V76z"/>
</g>
</svg>
