<svg id="Layer_1" data-name="Layer 1" xmlns="http://www.w3.org/2000/svg" viewBox="0 0 512 512">
  <defs>
    <style>
      .cls-1 {
        fill: #ffca4f;
        opacity: 0.4;
      }

      .cls-2 {
        fill: #20d0c2;
      }

      .cls-3 {
        fill: #1a91a1;
      }

      .cls-4 {
        fill: #fff;
      }

      .cls-5 {
        fill: #ecf0f1;
      }

      .cls-6 {
        fill: #ff5b61;
      }

      .cls-7 {
        fill: #ffba1b;
      }

      .cls-8 {
        fill: #f5a209;
      }

      .cls-9 {
        fill: #666;
      }

      .cls-10 {
        fill: #807d7d;
      }
    </style>
  </defs>
  <title>education-01</title>
  <path class="cls-1" d="M256,512c141,0,256-115,256-256S397,0,256,0,0,115,0,256,115,512,256,512Z"/>
  <path class="cls-2" d="M175.23,145.67h223.5l50.72,223.87-18.57.09-.44,79,19.14.1L449.45,462H147.33c-28.59-2.22-26-53-27.57-66.65l25.45-227.57c.1-10.11,10.62-22.09,30-22.09Z"/>
  <path class="cls-3" d="M175.23,145.67h21.41L177.16,462H147.33c-35-4-36.37-59.7-25-89.65l22.88-204.57c.1-10.11,10.62-22.09,30-22.09Z"/>
  <path class="cls-4" d="M151.22,369.51H443.65c-13.27,27.11-12.93,53.85,0,80.23H151.22C119.85,449.74,119.85,369.51,151.22,369.51Z"/>
  <path class="cls-5" d="M130,391.57H435.82q-.27,1.2-.5,2.41h-306C129.55,393.16,129.74,392.36,130,391.57ZM434.39,400h0c-.1.8-.18,1.61-.25,2.41H128c.07-.81.17-1.61.27-2.41Zm-.56,8.44h0q0,1.2,0,2.41H127.71q0-1.2,0-2.41Zm.31,8.43h0q.11,1.21.25,2.41H128.31q-.16-1.2-.27-2.41Zm1.18,8.44h0q.23,1.2.5,2.41H130c-.21-.79-.41-1.6-.59-2.41h306Zm2.05,8.44h0q.35,1.2.74,2.41H133.06c-.37-.78-.73-1.58-1.07-2.41h305.4Zm2.92,8.44h0c.32.8.65,1.61,1,2.41H139a24.23,24.23,0,0,1-2.18-2.41H440.31Z"/>
  <path class="cls-6" d="M240.17,410.62h45.7V512l-23-33.07L240.18,512V410.62Z"/>
  <path class="cls-4" d="M99,287.52,408.76,176.7c34.7-2.88,45.09,67.72,22.33,74.38L128.41,364.68c-17.19,6.48-34-21.17-35.5-48.27-.8-14.39,3.12-14,19.51-20.38L99,287.52h0Z"/>
  <path class="cls-5" d="M440.83,240.52c-2,5.34-5.19,9.23-9.74,10.56L128.41,364.68c-5.26,2-10.49.76-15.25-2.66,8.59.86,13.28-.28,21.45-8Z"/>
  <path class="cls-7" d="M302.27,214.82c23,3.32,39.45,57.94,27.95,74.12l-41.83,15.7c7.59-25.62-8.95-68.32-31.93-73.42Z"/>
  <path class="cls-8" d="M376.38,325.37l-46.16-36.43-41.83,15.7,34.93,40.6,16.14-24.12Z"/>
  <g>
    <path class="cls-5" d="M110.4,296.88l2-.85c12.65,2.56,34.84,47.9,10.53,58-17.29,7.16-25.35-30.35-24.72-42.79,7.41-5.31,15.42,17.09,12.85,17.6l-5.13,1s.16,9.8,5.13,10.48l19.86-6.43s-1.61-28.9-20.54-37Z"/>
    <path class="cls-5" d="M181.82,386.33H437.14a101,101,0,0,1,6.48-16.77l0-.05H151.21c-29,0-31.19,68.71-6.5,79-8.36-23.66-1.68-62.14,20-62.14h17.06Z"/>
  </g>
  <path class="cls-9" d="M279.23,136.17l2.52,43.95c-14.29,24.22-59.9,42.2-104.82,41.74-42.8-.43-85-18.19-96.63-40.55l-.24-43.06,95.62,26.4,103.54-28.47h0Z"/>
  <path class="cls-10" d="M21.07,120.88,175.68,68.65,330.3,120.88,175.68,173.12Z"/>
  <path class="cls-6" d="M76,227.81l-7.08,45.33c-.11.74,2.38,1.74,3.57.26a2.46,2.46,0,0,0,4.25-.19,2.23,2.23,0,0,0,4,.08c1.19,1.48,3.84.45,3.65-.79l-7-44.73a.7.7,0,0,0-1.32,0Z"/>
  <g>
    <path class="cls-4" d="M176.74,107.65a1.77,1.77,0,1,1,1,3.39L78.3,140.94v86.72a1.77,1.77,0,1,1-3.54,0v-88h0A1.77,1.77,0,0,1,76,137.93l100.7-30.28h0Z"/>
    <path class="cls-4" d="M76.67,233.58a7,7,0,1,0-7-7A7,7,0,0,0,76.67,233.58Z"/>
  </g>
  <path class="cls-5" d="M82.36,224.77a6.77,6.77,0,0,1-6.77,6.78h-.13a6.78,6.78,0,0,1-5.53-3,7,7,0,0,0,5.24,4.91,7.14,7.14,0,0,0,1.51.16,7,7,0,0,0,4.83-12.11,6.77,6.77,0,0,1,.86,3.3Z"/>
</svg>
