<?xml version="1.0" encoding="utf-8"?>
<!-- Generator: Adobe Illustrator 21.1.0, SVG Export Plug-In . SVG Version: 6.00 Build 0)  -->
<svg version="1.1" id="Capa_1" xmlns="http://www.w3.org/2000/svg" xmlns:xlink="http://www.w3.org/1999/xlink" x="0px" y="0px"
	 viewBox="0 0 480 480" style="enable-background:new 0 0 480 480;" xml:space="preserve">
<style type="text/css">
	.st0{fill:#23E59F;}
	.st1{fill:#6D6C6B;}
	.st2{fill:#00B67A;}
</style>
<g>
	<g>
		<circle class="st0" cx="232" cy="188.2" r="40"/>
		<circle class="st0" cx="384" cy="236.2" r="32"/>
		<path class="st0" d="M144,228.2l-18.1-36.2c-1.3-4-3.1-7.8-5.6-11.3l-0.3-0.6h-0.2c-13.1-17.6-37.9-21.2-55.4-8.2
			c-3.1,2.3-5.9,5.1-8.2,8.2H56l-0.3,0.6c-2.5,3.4-4.3,7.2-5.6,11.3L32,228.2h24.2c13.1,17.6,37.9,21.2,55.4,8.2
			c3.1-2.3,5.9-5.1,8.2-8.2L144,228.2L144,228.2z"/>
	</g>
	<g>
		<circle class="st0" cx="232" cy="188.2" r="40"/>
		<circle class="st0" cx="384" cy="236.2" r="32"/>
		<path class="st0" d="M144,228.2l-18.1-36.2c-1.3-4-3.1-7.8-5.6-11.3l-0.3-0.6h-0.2c-13.1-17.6-37.9-21.2-55.4-8.2
			c-3.1,2.3-5.9,5.1-8.2,8.2H56l-0.3,0.6c-2.5,3.4-4.3,7.2-5.6,11.3L32,228.2h24.2c13.1,17.6,37.9,21.2,55.4,8.2
			c3.1-2.3,5.9-5.1,8.2-8.2L144,228.2L144,228.2z"/>
	</g>
</g>
<g>
	<path class="st1" d="M464,268.2c-4.4,0-8-3.6-8-8c0-26.4-5.4-52.6-16-76.8c-1.9-4-0.2-8.8,3.8-10.7s8.8-0.2,10.7,3.8
		c0.1,0.1,0.1,0.3,0.2,0.4c11.5,26.2,17.4,54.6,17.3,83.2C472,264.7,468.4,268.2,464,268.2z"/>
	<path class="st1" d="M88,138.2c-4.4,0-8-3.6-8-8c0-1.9,0.7-3.8,1.9-5.2c39.5-46.2,97.3-72.8,158.1-72.8c4.4,0,8,3.6,8,8s-3.6,8-8,8
		c-56.1,0-109.5,24.5-145.9,67.2C92.5,137.2,90.3,138.2,88,138.2z"/>
</g>
<path class="st0" d="M355.5,32.8l-3.5-2l-3.5,2C332.6,42,314,45.1,296,41.6v77.9c0,9.6,2.7,19,7.8,27.2c6,9.6,14.8,17.1,25.2,21.4
	l23,9.6l23-9.6c10.4-4.3,19.3-11.8,25.2-21.4c5.1-8.2,7.7-17.6,7.8-27.2V41.6C390,45.1,371.3,42,355.5,32.8L355.5,32.8z"/>
<path class="st2" d="M352,177.7l23-9.6c10.4-4.3,19.3-11.8,25.2-21.4c5.1-8.2,7.7-17.6,7.8-27.2V41.6c-18,3.5-36.6,0.4-52.5-8.8
	l-3.5-2L352,177.7z"/>
<path class="st0" d="M467,333.7l-53.3-53.3c-15.6-15.6-40.9-15.6-56.5,0l-14.5,13.8c-8.2,7.8-21.1,7.6-29.1-0.4l-0.1-0.1l-9.5-9.5
	l-43.8-43.8c-15.6-15.6-40.9-15.6-56.5,0l-45.6,45.6L116.2,256c-15.6-15.6-40.9-15.6-56.5,0l-46.8,47.3c-6.6,6.6-6.6,17.4,0,24
	s17.4,6.6,24,0l19-19.6l-24,96.5h24v32c0,8.8,7.2,16,16,16s16-7.2,16-16c0,8.8,7.2,16,16,16s16-7.2,16-16v-32h24l-24-96.5l26.7,13.8
	c3.5,1.8,7.3,2.7,11.2,2.7c0.4,0,0.8-0.1,1.3-0.1l-0.2,0.1c0.3,0,0.6-0.1,1-0.1s0.6,0.1,1,0.1c4.5,0,8.8-1.8,12-5l2.2-2.2l24.8-24.9
	v144c0,8.8,7.2,16,16,16s16-7.2,16-16c0,8.8,7.2,16,16,16s16-7.2,16-16v-144l16,16l9.5,9.5l13.7,13.7c13,13.7,34.7,14.2,48.4,1.2
	c0.1-0.1,0.3-0.3,0.4-0.4v104c0,8.8,7.2,16,16,16s16-7.2,16-16c0,8.8,7.2,16,16,16s16-7.2,16-16v-104l27,25.5c6.6,6.6,17.4,6.6,24,0
	S473.6,340.3,467,333.7L467,333.7z"/>
<path d="M325.8,177.7l23,9.9c2,0.9,4.3,0.9,6.3,0l23-9.9c12.1-5.2,22.2-14.1,28.9-25.4c5.8-9.7,8.9-20.9,8.9-32.2V39.5
	c0-4.4-3.6-8-8-8c-0.5,0-1.1,0.1-1.6,0.2c-16,3.2-32.7,0.3-46.7-8.1l-3.5-2.1c-0.2-0.1-0.4-0.2-0.7-0.3c-0.2-0.1-0.5-0.2-0.7-0.3
	c-1.8-0.7-3.7-0.7-5.5,0c-0.2,0.1-0.5,0.2-0.7,0.3c-0.2,0.1-0.5,0.2-0.7,0.3l-3.5,2.1c-14,8.5-30.7,11.4-46.8,8.1
	c-4.3-0.9-8.6,1.9-9.4,6.2c-0.1,0.5-0.2,1.1-0.2,1.6v80.6c0,11.3,3.1,22.5,8.9,32.2C303.6,163.6,313.7,172.5,325.8,177.7
	L325.8,177.7z M400,48.7v71.4c0,8.5-2.3,16.7-6.6,24c-5,8.4-12.5,15-21.5,18.9l-11.9,5.1V41.7C372.5,47.4,386.3,49.8,400,48.7z
	 M304,48.7c13.7,1.1,27.5-1.3,40-7v126.4l-11.9-5.1c-9-3.9-16.5-10.5-21.5-18.9c-4.3-7.3-6.6-15.6-6.6-24V48.7z"/>
<path d="M456,260.2c0,4.4,3.6,8,8,8s8-3.6,8-8c0.1-28.6-5.8-57-17.3-83.2c-1.6-4.1-6.3-6.1-10.4-4.5c-4.1,1.6-6.1,6.3-4.5,10.4
	c0.1,0.2,0.1,0.3,0.2,0.4C450.6,207.7,456,233.8,456,260.2z"/>
<path d="M81.9,125c-2.9,3.4-2.5,8.4,0.9,11.3c3.4,2.9,8.4,2.5,11.3-0.9c36.5-42.7,89.8-67.2,145.9-67.2c4.4,0,8-3.6,8-8s-3.6-8-8-8
	C179.2,52.2,121.4,78.8,81.9,125z"/>
<path class="st0" d="M419.4,274.2c-2.9-2.9-6.3-5.5-9.9-7.5c17-14.1,19.3-39.4,5.2-56.3c-14.1-17-39.4-19.3-56.3-5.2
	s-19.3,39.4-5.2,56.3c1.9,2.3,4.1,4.4,6.5,6.2c-2.9,1.8-5.5,4-7.9,6.4l-14.5,13.8c-5.1,4.9-13.2,4.7-18-0.4l-53.3-53.3
	c-2.3-2.3-4.7-4.3-7.4-6c22.1-14.6,28.2-44.4,13.5-66.5s-44.4-28.2-66.5-13.5s-28.2,44.4-13.5,66.5c3.6,5.4,8.2,10,13.5,13.5
	c-2.7,1.8-5.1,3.8-7.4,6l-40.8,40.8l-35.9-25.8c-2.1-2-4.3-3.7-6.7-5.3c3.3-2.2,6.2-4.8,8.8-7.8H144c4.4,0,8-3.6,8-8
	c0-1.2-0.3-2.5-0.8-3.6L133.3,189c-1.4-4.4-3.5-8.6-6.2-12.4c-0.4-0.9-1-1.6-1.8-2.3c-16.3-20.7-46.2-24.2-66.9-7.9
	c-3.2,2.5-6.1,5.4-8.5,8.7c-0.3,0.3-0.6,0.7-0.9,1.1c-2.8,3.9-4.9,8.2-6.4,12.7l-17.8,35.7c-2,3.9-0.4,8.8,3.6,10.7
	c1.1,0.6,2.3,0.8,3.5,0.9h20.4c2.6,2.9,5.6,5.5,8.8,7.7c-2.6,1.7-5,3.7-7.2,5.8L7.3,297c-9.8,9.8-9.8,25.6,0,35.3
	c4.7,4.7,11,7.3,17.7,7.3c5.9,0,11.7-2.1,16.2-6l-16.9,68c-1.1,4.3,1.5,8.6,5.8,9.7c0.6,0.2,1.3,0.3,2,0.3h16v24
	c0,13.2,10.7,23.9,23.9,24c5.9,0,11.7-2.2,16.1-6.2c9.8,8.9,24.9,8.1,33.8-1.7c4-4.4,6.2-10.1,6.2-16.1v-24h16c4.4,0,8-3.6,8-8
	c0-0.7-0.1-1.3-0.2-1.9L132,322.4l11,5.7c4.8,2.5,10.1,3.7,15.4,3.6c0.5,0,1,0,1.5,0c0.4,0,0.7,0.1,0.9,0.1c6.6,0,13-2.6,17.7-7.3
	L192,311v124.7c0,13.2,10.6,23.9,23.8,24c6,0,11.7-2.2,16.2-6.2c9.8,8.9,24.9,8.1,33.8-1.7c4-4.4,6.2-10.1,6.2-16.1V311l25.6,25.6
	c12,12.4,30.4,16.2,46.4,9.7v89.4c0,13.2,10.6,23.9,23.8,24c6,0,11.7-2.2,16.2-6.2c9.8,8.9,24.9,8.1,33.8-1.7
	c4-4.4,6.2-10.1,6.2-16.1v-85.5l13.4,12.6c9.8,9.8,25.6,9.7,35.3,0c4.7-4.7,7.3-11,7.3-17.6c0-6.6-2.6-13-7.3-17.7L419.4,274.2z
	 M384,212.2c13.3,0,24,10.7,24,24s-10.7,24-24,24s-24-10.7-24-24l0,0C360,223,370.7,212.2,384,212.2z M232,156.2
	c17.7,0,32,14.3,32,32s-14.3,32-32,32s-32-14.3-32-32S214.3,156.2,232,156.2z M62.6,223.4c-1.5-2-3.9-3.2-6.4-3.2H45l12.3-24.6
	c0.2-0.4,0.3-0.7,0.5-1.1c1-3.2,2.5-6.2,4.4-8.9c0.1-0.2,0.3-0.3,0.4-0.5c10.4-14.1,30.2-17,44.3-6.6c2.5,1.9,4.7,4.1,6.6,6.6
	c0.1,0.2,0.3,0.3,0.4,0.5c1.9,2.7,3.4,5.7,4.4,8.9c0.1,0.4,0.3,0.8,0.5,1.1l12.3,24.6h-11.2c-2.5,0-4.9,1.2-6.4,3.2
	c-5.5,7.3-13.9,11.9-23.1,12.5c-1.6-0.1-3.3-0.1-4.9,0C76.4,235.3,68,230.7,62.6,223.4L62.6,223.4z M455,354.1c-2.5,0-4.8-1-6.5-2.8
	l-27-25.5c-3.2-3-8.3-2.9-11.3,0.3c-1.4,1.5-2.2,3.5-2.2,5.6v104c0,4.4-3.6,8-8,8s-8-3.6-8-8v-59.9c0-4.4-3.6-8-8-8s-8,3.6-8,8v59.9
	c0,4.4-3.6,8-8,8s-8-3.6-8-8v-104c0-4.4-3.6-8-8-8c-2,0-4,0.8-5.5,2.2c-10.3,10.2-27,10.1-37.2-0.2c-0.1-0.1-0.3-0.3-0.4-0.4
	L269.7,286c-3.1-3.2-8.2-3.2-11.3-0.1c-1.5,1.5-2.4,3.6-2.4,5.8v144c0,4.4-3.6,8-8,8s-8-3.6-8-8v-96c0-4.4-3.6-8-8-8s-8,3.6-8,8v96
	c0,4.4-3.6,8-8,8s-8-3.6-8-8v-144c0-4.4-3.6-8-8-8c-2.1,0-4.2,0.8-5.7,2.3l-27,27c-1.5,1.6-3.6,2.5-5.8,2.6c-0.2,0-0.8-0.1-1-0.1
	s-0.4,0-0.6,0c-0.4,0-0.7,0-1.1,0c-0.3,0-0.5,0-0.8,0.1c-2.6,0-5.2-0.6-7.5-1.8L123.7,300c-3.9-2-8.8-0.5-10.8,3.4
	c-0.9,1.7-1.1,3.7-0.7,5.6l21.5,86.6H120c-4.4,0-8,3.6-8,8v32c0,4.4-3.6,8-8,8s-8-3.6-8-8v-32c0-4.4-3.6-8-8-8s-8,3.6-8,8v32
	c0,4.4-3.6,8-8,8s-8-3.6-8-8v-32c0-4.4-3.6-8-8-8H42.2L63.8,309c1.1-4.3-1.6-8.6-5.8-9.7c-2.8-0.7-5.7,0.2-7.7,2.2l-19,19.5
	c-3.5,3.5-9.2,3.6-12.7,0.1c-1.7-1.7-2.7-4-2.7-6.4c0-2.4,0.9-4.7,2.7-6.4L65.4,261c5.1-5.1,11.8-8.3,19-9c1.2,0.1,2.4,0.2,3.6,0.2
	s2.4-0.1,3.6-0.2c7.2,0.7,13.9,3.9,19,9c0.3,0.3,0.6,0.6,1,0.8l41.9,30.1c3.2,2.3,7.6,1.9,10.3-0.8l45.6-45.6
	c12.5-12.4,32.7-12.4,45.2,0L308,299c11,11.1,28.9,11.4,40.2,0.5l14.7-13.9c12.6-12.1,32.5-12.1,45.2,0l53.3,53.3
	c3.5,3.5,3.5,9.2,0,12.7C459.7,353.2,457.4,354.1,455,354.1L455,354.1L455,354.1z"/>
</svg>
