<svg height="512pt" viewBox="0 0 512 512" width="512pt" xmlns="http://www.w3.org/2000/svg"><path d="m438.851562 466.5c-20.96875 0-31.785156 8.871094-41.328124 16.699219-8.699219 7.136719-16.210938 13.300781-31.816407 13.300781s-23.117187-6.164062-31.816406-13.300781c-9.542969-7.828125-20.359375-16.699219-41.328125-16.699219-20.964844 0-31.78125 8.871094-41.328125 16.699219-8.699219 7.136719-16.210937 13.300781-31.8125 13.300781s-23.113281-6.164062-31.8125-13.300781c-9.542969-7.828125-20.359375-16.699219-41.328125-16.699219-20.964844 0-31.78125 8.871094-41.324219 16.699219-8.699219 7.136719-16.210937 13.300781-31.816406 13.300781-15.601563 0-23.113281-6.164062-31.8125-13.300781-9.542969-7.828125-20.359375-16.699219-41.328125-16.699219v15c15.601562 0 23.113281 6.164062 31.8125 13.300781 9.542969 7.828125 20.359375 16.699219 41.328125 16.699219s31.785156-8.871094 41.328125-16.699219c8.699219-7.136719 16.210938-13.300781 31.8125-13.300781 15.605469 0 23.117188 6.164062 31.8125 13.300781 9.542969 7.828125 20.359375 16.699219 41.328125 16.699219s31.785156-8.871094 41.324219-16.699219c8.699218-7.136719 16.214844-13.300781 31.816406-13.300781s23.113281 6.164062 31.8125 13.300781c9.546875 7.828125 20.359375 16.699219 41.328125 16.699219 20.972656 0 31.789063-8.871094 41.332031-16.699219 8.699219-7.136719 16.210938-13.300781 31.816406-13.300781 15.601563 0 23.117188 6.164062 31.816407 13.300781 9.542969 7.828125 20.359375 16.699219 41.328125 16.699219v-15c-15.601563 0-23.113282-6.164062-31.8125-13.300781-9.542969-7.828125-20.363282-16.699219-41.332032-16.699219zm0 0"/><path d="m73.140625 441.5c20.96875 0 31.785156-8.871094 41.328125-16.699219 8.699219-7.136719 16.210938-13.300781 31.8125-13.300781 12.261719 0 19.417969 3.605469 26.988281 9.421875l9.136719-11.894531c-8.058594-6.191406-18.65625-12.527344-36.125-12.527344-20.964844 0-31.78125 8.871094-41.324219 16.699219-8.699219 7.136719-16.210937 13.300781-31.816406 13.300781-15.601563 0-23.113281-6.164062-31.8125-13.300781-9.542969-7.828125-20.359375-16.699219-41.328125-16.699219v15c15.601562 0 23.113281 6.164062 31.8125 13.300781 9.542969 7.828125 20.359375 16.699219 41.328125 16.699219zm0 0"/><path d="m512 261.5h-25.5v-57.5c0-23.433594-19.066406-42.5-42.5-42.5s-42.5 19.066406-42.5 42.5v57.5h-25v-57.5c0-23.433594-19.066406-42.5-42.5-42.5s-42.5 19.066406-42.5 42.5v57.5h-159.5v15h159.5v120.015625c-20.269531.292969-30.886719 8.992187-40.265625 16.683594-8.699219 7.136719-16.210937 13.300781-31.8125 13.300781-12.421875 0-19.5625-3.964844-25.425781-8.253906l-8.851563 12.113281c7.097657 5.1875 17.410157 11.140625 34.277344 11.140625 20.964844 0 31.78125-8.871094 41.324219-16.699219 8.699218-7.136719 16.214844-13.300781 31.816406-13.300781s23.113281 6.164062 31.8125 13.300781c9.542969 7.828125 20.359375 16.699219 41.328125 16.699219s31.785156-8.871094 41.332031-16.699219c8.699219-7.136719 16.210938-13.300781 31.816406-13.300781 15.601563 0 23.117188 6.164062 31.816407 13.300781 9.542969 7.828125 20.359375 16.699219 41.328125 16.699219v-15c-15.601563 0-23.117188-6.164062-31.816406-13.300781-9.542969-7.828125-20.359376-16.699219-41.328126-16.699219-9.132812 0-16.339843 1.683594-22.355468 4.230469v-124.230469h95.503906zm-205.5-57.5c0-15.164062 12.335938-27.5 27.5-27.5s27.5 12.335938 27.5 27.5v57.5h-55zm95 152.5h-95v-35h95zm-3.976562 56.699219c-8.699219 7.136719-16.214844 13.300781-31.816407 13.300781-15.605469 0-23.117187-6.164062-31.816406-13.300781-7.160156-5.875-15.042969-12.335938-27.390625-15.195313v-26.503906h95v38.484375c-1.363281 1.074219-2.683594 2.15625-3.976562 3.214844zm3.976562-106.699219h-95v-30h95zm15-102.5c0-15.164062 12.335938-27.5 27.5-27.5s27.5 12.335938 27.5 27.5v57.5h-55zm0 0"/><path d="m0 261.5h87v15h-87zm0 0"/><path d="m102 261.5h15v15h-15zm0 0"/><path d="m75.554688 230.757812-26.5625-7.117187 11.824218-44.125c1.199219.101563 2.398438.171875 3.601563.171875 19.1875 0 36.058593-12.957031 41.03125-31.507812l21.351562-79.691407-82.105469-22-21.351562 79.691407-.035156.125 7.449218 1.859374 7.074219 1.894532 7.117188-26.5625 53.125 14.234375-7.117188 26.5625c-3.21875 12.007812-14.132812 20.390625-26.542969 20.390625-2.394531 0-4.796874-.316406-7.136718-.945313-10.367188-2.777343-18.21875-11.414062-20.011719-21.996093l-14.789063 2.5c2.339844 13.84375 11.414063 25.503906 23.855469 31.371093l-11.828125 44.140625-26.5625-7.117187-3.882812 14.488281 67.613281 18.117188zm-26.722657-141.746093 6.46875-24.152344 53.128907 14.238281-6.472657 24.148438zm0 0"/><path d="m207.582031 179.6875c1.203125 0 2.402344-.070312 3.601563-.171875l11.824218 44.125-26.5625 7.117187 3.882813 14.484376 67.613281-18.113282-3.882812-14.488281-26.5625 7.117187-11.820313-44.121093c14.6875-6.902344 24.4375-21.796875 24.4375-38.433594 0-1.6875-.101562-3.390625-.304687-5.070313l-14.894532 1.796876c.132813 1.082031.199219 2.183593.199219 3.269531 0 12.410156-8.386719 23.324219-20.394531 26.542969-2.335938.625-4.738281.945312-7.136719.945312-12.410156 0-23.324219-8.386719-26.542969-20.390625l-7.117187-26.566406 53.128906-14.234375 4.527344 16.910156 14.492187-3.882812-18.765624-70.035157-82.105469 22 21.351562 79.6875c4.972657 18.554688 21.84375 31.511719 41.03125 31.511719zm9.117188-114.828125 6.46875 24.148437-53.125 14.234376-6.472657-24.144532zm0 0"/><path d="m128.5 0h15v30h-15zm0 0"/><path d="m155.691406 36.691406 22-22 10.605469 10.605469-22 22zm0 0"/><path d="m83.695312 25.304688 10.605469-10.605469 22 22-10.605469 10.605469zm0 0"/><path d="m76 333.5c-15.164062 0-27.5 12.335938-27.5 27.5s12.335938 27.5 27.5 27.5 27.5-12.335938 27.5-27.5-12.335938-27.5-27.5-27.5zm0 40c-6.894531 0-12.5-5.605469-12.5-12.5s5.605469-12.5 12.5-12.5 12.5 5.605469 12.5 12.5-5.605469 12.5-12.5 12.5zm0 0"/><path d="m206 352.5c15.164062 0 27.5-12.335938 27.5-27.5s-12.335938-27.5-27.5-27.5-27.5 12.335938-27.5 27.5 12.335938 27.5 27.5 27.5zm0-40c6.894531 0 12.5 5.605469 12.5 12.5s-5.605469 12.5-12.5 12.5-12.5-5.605469-12.5-12.5 5.605469-12.5 12.5-12.5zm0 0"/><path d="m439.5 355c0 15.164062 12.335938 27.5 27.5 27.5s27.5-12.335938 27.5-27.5-12.335938-27.5-27.5-27.5-27.5 12.335938-27.5 27.5zm40 0c0 6.894531-5.605469 12.5-12.5 12.5s-12.5-5.605469-12.5-12.5 5.605469-12.5 12.5-12.5 12.5 5.605469 12.5 12.5zm0 0"/><path d="m283.5 68.5h15v15h-15zm0 0"/><path d="m283.5 18.5h15v15h-15zm0 0"/><path d="m308.5 43.5h15v15h-15zm0 0"/><path d="m258.5 43.5h15v15h-15zm0 0"/><path d="m131 306.5h-50v-15h50zm-65 0h-15v-15h15zm-30 0h-15v-15h15zm0 0"/><path d="m135.5 356.5h15v15h-15zm0 0"/><path d="m216 376.5h15v15h-15zm0 0"/></svg>