<?xml version="1.0" encoding="utf-8"?>
<!-- Generator: Adobe Illustrator 21.1.0, SVG Export Plug-In . SVG Version: 6.00 Build 0)  -->
<svg version="1.1" id="Layer_1" xmlns="http://www.w3.org/2000/svg" xmlns:xlink="http://www.w3.org/1999/xlink" x="0px" y="0px"
	 viewBox="0 0 512 512" style="enable-background:new 0 0 512 512;" xml:space="preserve">
<style type="text/css">
	.st0{fill:#00B67A;}
</style>
<path class="st0" d="M438.9,466.5c-21,0-31.8,8.9-41.3,16.7c-8.7,7.1-16.2,13.3-31.8,13.3s-23.1-6.2-31.8-13.3
	c-9.5-7.8-20.4-16.7-41.3-16.7c-21,0-31.8,8.9-41.3,16.7c-8.7,7.1-16.2,13.3-31.8,13.3s-23.1-6.2-31.8-13.3
	c-9.5-7.8-20.4-16.7-41.3-16.7c-21,0-31.8,8.9-41.3,16.7c-8.7,7.1-16.2,13.3-31.8,13.3c-15.6,0-23.1-6.2-31.8-13.3
	C31.8,475.4,21,466.5,0,466.5v15c15.6,0,23.1,6.2,31.8,13.3c9.5,7.8,20.4,16.7,41.3,16.7s31.8-8.9,41.3-16.7
	c8.7-7.1,16.2-13.3,31.8-13.3c15.6,0,23.1,6.2,31.8,13.3c9.5,7.8,20.4,16.7,41.3,16.7s31.8-8.9,41.3-16.7
	c8.7-7.1,16.2-13.3,31.8-13.3s23.1,6.2,31.8,13.3c9.5,7.8,20.4,16.7,41.3,16.7c21,0,31.8-8.9,41.3-16.7c8.7-7.1,16.2-13.3,31.8-13.3
	c15.6,0,23.1,6.2,31.8,13.3c9.5,7.8,20.4,16.7,41.3,16.7v-15c-15.6,0-23.1-6.2-31.8-13.3C470.6,475.4,459.8,466.5,438.9,466.5z"/>
<path class="st0" d="M73.1,441.5c21,0,31.8-8.9,41.3-16.7c8.7-7.1,16.2-13.3,31.8-13.3c12.3,0,19.4,3.6,27,9.4l9.1-11.9
	c-8.1-6.2-18.7-12.5-36.1-12.5c-21,0-31.8,8.9-41.3,16.7c-8.7,7.1-16.2,13.3-31.8,13.3c-15.6,0-23.1-6.2-31.8-13.3
	C31.8,405.4,21,396.5,0,396.5v15c15.6,0,23.1,6.2,31.8,13.3C41.4,432.6,52.2,441.5,73.1,441.5z"/>
<path class="st0" d="M512,261.5h-25.5V204c0-23.4-19.1-42.5-42.5-42.5s-42.5,19.1-42.5,42.5v57.5h-25V204
	c0-23.4-19.1-42.5-42.5-42.5s-42.5,19.1-42.5,42.5v57.5H132v15h159.5v120c-20.3,0.3-30.9,9-40.3,16.7c-8.7,7.1-16.2,13.3-31.8,13.3
	c-12.4,0-19.6-4-25.4-8.3l-8.9,12.1c7.1,5.2,17.4,11.1,34.3,11.1c21,0,31.8-8.9,41.3-16.7c8.7-7.1,16.2-13.3,31.8-13.3
	s23.1,6.2,31.8,13.3c9.5,7.8,20.4,16.7,41.3,16.7s31.8-8.9,41.3-16.7c8.7-7.1,16.2-13.3,31.8-13.3c15.6,0,23.1,6.2,31.8,13.3
	c9.5,7.8,20.4,16.7,41.3,16.7v-15c-15.6,0-23.1-6.2-31.8-13.3c-9.5-7.8-20.4-16.7-41.3-16.7c-9.1,0-16.3,1.7-22.4,4.2V276.5H512
	V261.5z M306.5,204c0-15.2,12.3-27.5,27.5-27.5s27.5,12.3,27.5,27.5v57.5h-55V204z M401.5,356.5h-95v-35h95V356.5z M397.5,413.2
	c-8.7,7.1-16.2,13.3-31.8,13.3c-15.6,0-23.1-6.2-31.8-13.3c-7.2-5.9-15-12.3-27.4-15.2v-26.5h95V410
	C400.1,411.1,398.8,412.1,397.5,413.2z M401.5,306.5h-95v-30h95V306.5z M416.5,204c0-15.2,12.3-27.5,27.5-27.5s27.5,12.3,27.5,27.5
	v57.5h-55V204z"/>
<path class="st0" d="M0,261.5h87v15H0V261.5z"/>
<path class="st0" d="M102,261.5h15v15h-15V261.5z"/>
<path class="st0" d="M75.6,230.8L49,223.6l11.8-44.1c1.2,0.1,2.4,0.2,3.6,0.2c19.2,0,36.1-13,41-31.5l21.4-79.7l-82.1-22l-21.4,79.7
	l0,0.1l7.4,1.9l7.1,1.9l7.1-26.6l53.1,14.2L91,144.3c-3.2,12-14.1,20.4-26.5,20.4c-2.4,0-4.8-0.3-7.1-0.9c-10.4-2.8-18.2-11.4-20-22
	l-14.8,2.5c2.3,13.8,11.4,25.5,23.9,31.4l-11.8,44.1l-26.6-7.1l-3.9,14.5l67.6,18.1L75.6,230.8z M48.8,89l6.5-24.2l53.1,14.2
	l-6.5,24.1L48.8,89z"/>
<path class="st0" d="M207.6,179.7c1.2,0,2.4-0.1,3.6-0.2l11.8,44.1l-26.6,7.1l3.9,14.5l67.6-18.1l-3.9-14.5l-26.6,7.1l-11.8-44.1
	c14.7-6.9,24.4-21.8,24.4-38.4c0-1.7-0.1-3.4-0.3-5.1l-14.9,1.8c0.1,1.1,0.2,2.2,0.2,3.3c0,12.4-8.4,23.3-20.4,26.5
	c-2.3,0.6-4.7,0.9-7.1,0.9c-12.4,0-23.3-8.4-26.5-20.4l-7.1-26.6l53.1-14.2l4.5,16.9l14.5-3.9l-18.8-70l-82.1,22l21.4,79.7
	C171.5,166.7,188.4,179.7,207.6,179.7z M216.7,64.9l6.5,24.1L170,103.2l-6.5-24.1L216.7,64.9z"/>
<path class="st0" d="M128.5,0h15v30h-15V0z"/>
<path class="st0" d="M155.7,36.7l22-22l10.6,10.6l-22,22L155.7,36.7z"/>
<path class="st0" d="M83.7,25.3l10.6-10.6l22,22l-10.6,10.6L83.7,25.3z"/>
<path class="st0" d="M76,333.5c-15.2,0-27.5,12.3-27.5,27.5s12.3,27.5,27.5,27.5s27.5-12.3,27.5-27.5S91.2,333.5,76,333.5z
	 M76,373.5c-6.9,0-12.5-5.6-12.5-12.5s5.6-12.5,12.5-12.5s12.5,5.6,12.5,12.5S82.9,373.5,76,373.5z"/>
<path class="st0" d="M206,352.5c15.2,0,27.5-12.3,27.5-27.5s-12.3-27.5-27.5-27.5s-27.5,12.3-27.5,27.5S190.8,352.5,206,352.5z
	 M206,312.5c6.9,0,12.5,5.6,12.5,12.5s-5.6,12.5-12.5,12.5s-12.5-5.6-12.5-12.5S199.1,312.5,206,312.5z"/>
<path class="st0" d="M439.5,355c0,15.2,12.3,27.5,27.5,27.5s27.5-12.3,27.5-27.5s-12.3-27.5-27.5-27.5S439.5,339.8,439.5,355z
	 M479.5,355c0,6.9-5.6,12.5-12.5,12.5s-12.5-5.6-12.5-12.5s5.6-12.5,12.5-12.5S479.5,348.1,479.5,355z"/>
<path class="st0" d="M283.5,68.5h15v15h-15V68.5z"/>
<path class="st0" d="M283.5,18.5h15v15h-15V18.5z"/>
<path class="st0" d="M308.5,43.5h15v15h-15V43.5z"/>
<path class="st0" d="M258.5,43.5h15v15h-15V43.5z"/>
<path class="st0" d="M131,306.5H81v-15h50V306.5z M66,306.5H51v-15h15V306.5z M36,306.5H21v-15h15V306.5z"/>
<path class="st0" d="M135.5,356.5h15v15h-15V356.5z"/>
<path class="st0" d="M216,376.5h15v15h-15V376.5z"/>
</svg>
