<?xml version="1.0" encoding="utf-8"?>
<!-- Generator: Adobe Illustrator 21.1.0, SVG Export Plug-In . SVG Version: 6.00 Build 0)  -->
<svg version="1.1" id="Layer_1" xmlns="http://www.w3.org/2000/svg" xmlns:xlink="http://www.w3.org/1999/xlink" x="0px" y="0px"
	 viewBox="0 0 512 512" style="enable-background:new 0 0 512 512;" xml:space="preserve">
<style type="text/css">
	.st0{fill:#2D404E;}
	.st1{fill:#48B19B;}
	.st2{opacity:0.6;fill:#253744;enable-background:new    ;}
	.st3{fill:#F5F9EC;}
	.st4{fill:#E4E8DB;}
	.st5{fill:#DCC69F;}
	.st6{fill:#C8BEB2;}
	.st7{fill:#CDB994;}
	.st8{fill:#EA672C;}
	.st9{fill:#125D9D;}
	.st10{fill:#E7BE29;}
	.st11{fill:#FFFFFF;}
</style>
<title>world-01</title>
<g id="Layer_1_1_">
	<g>
		<g>
			<circle class="st0" cx="227.6" cy="238" r="221.1"/>
			<path class="st1" d="M448.8,238c0.1-42.7-12.3-84.5-35.6-120.3c0,0-12.6,18.4-10.2,30.3c2.4,11.8,16.3,12.8,14.9,21.4
				c-1.4,8.7-11.7-2.5-24.3,20.4s-6.3,54.5,11.8,56.9C423.5,249.1,448.8,238,448.8,238z"/>
			<path class="st1" d="M285.7,24.6c25.4,6.9,49.3,18.3,70.7,33.6c0,0-25.6-4.2-35.4,4.5c-9.7,8.7-23.9,29.2-35.4,0
				S285.7,24.6,285.7,24.6z"/>
			<path class="st1" d="M61.4,92.2c41.9-47.9,102.6-75.4,166.2-75.3c0,0-15,9.1,13.4,24.5s15.4,22.5,9.5,27.2
				c-5.9,4.7-16.2-9.5-22.9-18.9s-35.5-24.1-57.6-16.2S128.9,47.2,132,54.6c3.1,7.4,41.1-6.9,55.3-6.1c14.2,0.8,9.5,9.5-3.9,19.7
				s-15,22.9-0.8,30.8c14.2,7.9,31.6,8.7,35.5,4c3.9-4.8-7.1-35.5,19.7-22.1c26.8,13.4,49,21.3,26.8,41.1s-47.4,41.8-48.2,54.5
				s7.9,22.9,3.2,23.6s-9.1-5.1-12.2-9.5c-3.2-4.4-17.8-5.9-24.9-3.2c-7.1,2.8-20.5,13.4-13,23.6s17.8,5.5,28,10.3
				c10.3,4.7,19.8,22.8,17.9,26.8c-2,4.1-10.7-1.1-17.9-15c-7.2-13.9-20.6-4.7-30-7.1c-9.4-2.4-16.5-3.9-26.1-20.4
				s-29.1-21.2-37.1-30.8c-23-27.4-21.3-48.2-26.1-57.6S61.4,92.2,61.4,92.2z"/>
			<path class="st1" d="M248.9,241.2c0,0,23.6,2.4,35.5,12.6c11.9,10.3,13.4,14.2,31.6,18.2c18.2,3.9,26.1,14.2,14.2,34
				c-11.8,19.7-33.2,51.3-43.4,60.8c-10.3,9.5-22.9,17.4-27.6,33.2c-4.7,15.7-6.3,25.3,3.9,31.6c0,0-5.5,13.4-18.2-3.9
				c-12.6-17.4-2.4-37.9,0-49.8c2.4-11.9,8.7-47.4,4.7-56.1c-4-8.7-22.1-14.2-26.8-32.3C218.1,271.2,226.4,235.8,248.9,241.2z"/>
			<path class="st2" d="M71.3,81.7C158-4.3,298-3.6,384,83.2c85.3,86.2,85.3,225,0,311.1c0,0,100.3-132.7-41.7-274.7
				S71.3,81.7,71.3,81.7z"/>
		</g>
		<path class="st3" d="M495.6,273.1c7.5,2,11.9,9.7,9.9,17.1c0,0,0,0,0,0.1l-41.6,155.2c-2,7.5-9.7,11.9-17.1,9.9l-81-21.7
			c-7.5-2-11.9-9.7-9.9-17.1l41.6-155.3c2-7.5,9.7-11.9,17.1-9.9L495.6,273.1z"/>
		<path class="st4" d="M432.9,293.7h-44.1l-32.9,122.9c-2,7.5,2.4,15.1,9.9,17.1l81,21.7c7.5,2,15.1-2.4,17.1-9.9l25.5-95.3
			L432.9,293.7z"/>
		<path class="st5" d="M495.6,273.1c7.5,2,11.9,9.7,9.9,17.1c0,0,0,0,0,0.1l-18.1,67.5l-108-28.9l18.1-67.5c2-7.5,9.7-11.9,17.1-9.9
			L495.6,273.1z"/>
		<g>
			
				<rect x="381.6" y="401.2" transform="matrix(0.2588 -0.9659 0.9659 0.2588 -89.8976 692.1747)" class="st6" width="48.9" height="7"/>
			
				<rect x="410.8" y="357.3" transform="matrix(0.2588 -0.9659 0.9659 0.2588 -38.8009 671.0066)" class="st6" width="14" height="7"/>
			
				<rect x="431.1" y="362.7" transform="matrix(0.2588 -0.9659 0.9659 0.2588 -28.9875 694.5972)" class="st6" width="14" height="7"/>
			
				<rect x="451.4" y="368.1" transform="matrix(0.2588 -0.9659 0.9659 0.2588 -19.2434 718.1817)" class="st6" width="14" height="7"/>
			
				<rect x="401.9" y="406.6" transform="matrix(0.2588 -0.9659 0.9659 0.2588 -80.1394 715.7534)" class="st6" width="48.9" height="7"/>
			
				<rect x="422.1" y="412" transform="matrix(0.2588 -0.9659 0.9659 0.2588 -70.3689 739.3756)" class="st6" width="48.9" height="7"/>
		</g>
		<path class="st3" d="M471.7,281.1l-5.8-1.6l-20.7,19.3l-12.5-3.4c-3.9-1-8.2-0.1-8.7,1.8s2.8,4.9,6.7,5.9l12.5,3.4l8.3,27l5.8,1.6
			l-0.6-25l10.2,2.7l4.5,7.9l3.9,1l-0.7-11l6.1-9.2l-3.9-1l-7.8,4.6l-10.2-2.7L471.7,281.1z"/>
		<polygon class="st7" points="379.4,328.8 487.4,357.7 489.4,350.2 432.9,293.7 388.8,293.7 		"/>
		<path class="st4" d="M432.7,295.5c-3.9-1-8.2-0.1-8.7,1.8c-0.5,1.9,2.8,4.9,6.7,5.9l12.5,3.4l8.3,27l5.8,1.6l-0.4-17.5l-21.4-21.4
			L432.7,295.5z"/>
		<path class="st8" d="M421.4,253.2l-48.9,182.3l-6.8-1.8c-7.5-2-11.9-9.7-9.9-17.1l41.6-155.3c2-7.5,9.7-11.9,17.1-9.9L421.4,253.2
			z"/>
		<path class="st9" d="M436.1,428.3c0,7.7-6.3,14-14,14H317.2c-3.9,0-7-3.1-7-7V295.5c0-3.9,3.1-7,7-7h104.8c7.7,0,14,6.3,14,14
			V428.3z"/>
		<path class="st10" d="M373.2,309.5c-23.2,0-41.9,18.8-41.9,41.9s18.8,41.9,41.9,41.9c23.2,0,41.9-18.8,41.9-41.9l0,0
			C415.1,328.3,396.3,309.5,373.2,309.5z M404.3,335.7h-15.2c-1.2-6.1-3.2-12-6-17.6C392.2,320.8,399.9,327.2,404.3,335.7
			L404.3,335.7z M383.7,351.4c0,2.9-0.2,5.8-0.6,8.7h-19.9c-0.7-5.8-0.7-11.6,0-17.4h19.9C383.5,345.6,383.7,348.5,383.7,351.4
			L383.7,351.4z M364.5,335.7c1.4-6.8,4-13.3,7.8-19.1c0.3,0,0.7-0.1,1-0.1c0.3,0,0.7,0.1,1,0.1c3.7,5.9,6.3,12.3,7.7,19.1H364.5z
			 M363.3,318.1c-2.8,5.6-4.8,11.5-6,17.6h-15.2C346.5,327.2,354.1,320.8,363.3,318.1L363.3,318.1z M339.5,342.7h16.7
			c-0.3,2.9-0.5,5.8-0.5,8.7c0,2.9,0.2,5.8,0.5,8.7h-16.8C337.8,354.4,337.8,348.4,339.5,342.7L339.5,342.7z M342.2,367.2h15.1
			c1.2,6.1,3.2,12,6,17.6C354.1,382.1,346.5,375.7,342.2,367.2L342.2,367.2z M372.2,386.3c-3.7-5.9-6.3-12.3-7.7-19.1H382
			c-1.4,6.8-4.1,13.3-7.8,19.1c-0.3,0-0.7,0.1-1,0.1S372.5,386.3,372.2,386.3L372.2,386.3z M383.2,384.8c2.8-5.6,4.8-11.5,6-17.6
			h15.1C399.9,375.7,392.3,382.1,383.2,384.8L383.2,384.8z M406.9,360.2h-16.8c0.3-2.9,0.5-5.8,0.5-8.7c0-2.9-0.2-5.8-0.5-8.7h16.7
			C408.5,348.4,408.5,354.5,406.9,360.2L406.9,360.2z"/>
		<g>
			<path class="st11" d="M335.8,421.3v-10h3.7c0.5,0,1,0,1.5,0.1c0.4,0.1,0.9,0.2,1.2,0.5c0.3,0.3,0.6,0.6,0.8,1
				c0.5,1.2,0.3,2.6-0.5,3.5c-0.8,0.7-1.9,1-2.9,0.9h-2.6v4.1L335.8,421.3z M337.1,416.1h2.6c0.6,0.1,1.3-0.1,1.8-0.5
				c0.4-0.3,0.6-0.8,0.5-1.3c0-0.4-0.1-0.8-0.3-1.1c-0.2-0.3-0.5-0.5-0.8-0.6c-0.4-0.1-0.8-0.1-1.2-0.1h-2.6L337.1,416.1z"/>
			<path class="st11" d="M343,421.3l3.8-10h1.4l4.1,10h-1.5l-1.2-3h-4.2l-1.1,3H343z M345.9,417.2h3.3l-1-2.8
				c-0.3-0.8-0.6-1.5-0.7-2.1c-0.1,0.7-0.3,1.3-0.5,1.9L345.9,417.2z"/>
			<path class="st11" d="M353,418.1l1.2-0.1c0,0.4,0.2,0.9,0.4,1.2c0.3,0.4,0.6,0.6,1,0.8c0.5,0.2,1,0.3,1.5,0.3
				c0.5,0,0.9-0.1,1.3-0.2c0.3-0.1,0.6-0.3,0.9-0.6c0.2-0.2,0.3-0.5,0.3-0.9c0-0.3-0.1-0.6-0.3-0.8c-0.2-0.3-0.6-0.5-0.9-0.6
				c-0.6-0.2-1.2-0.4-1.8-0.5c-0.7-0.1-1.3-0.3-1.9-0.6c-0.4-0.2-0.8-0.5-1.1-0.9c-0.2-0.4-0.4-0.8-0.3-1.2c0-0.5,0.1-1,0.4-1.4
				c0.3-0.5,0.7-0.8,1.2-1c0.6-0.2,1.2-0.3,1.8-0.3c0.7,0,1.3,0.1,2,0.4c0.5,0.2,1,0.6,1.3,1.1c0.3,0.5,0.5,1,0.5,1.6l-1.2,0.1
				c0-0.6-0.3-1.1-0.7-1.4c-0.5-0.4-1.1-0.5-1.7-0.5c-0.6-0.1-1.2,0.1-1.8,0.4c-0.3,0.2-0.5,0.6-0.5,1.1c0,0.3,0.1,0.7,0.4,0.9
				c0.6,0.4,1.3,0.6,2,0.7c0.8,0.1,1.5,0.4,2.2,0.6c0.5,0.2,0.9,0.6,1.2,1c0.3,0.4,0.4,0.9,0.4,1.4c0,0.5-0.2,1.1-0.5,1.5
				c-0.3,0.5-0.8,0.9-1.3,1.1c-0.6,0.3-1.3,0.4-1.9,0.4c-0.8,0-1.6-0.1-2.3-0.4c-0.6-0.3-1.1-0.7-1.4-1.2
				C353.2,419.4,353,418.8,353,418.1z"/>
			<path class="st11" d="M362.3,418.1l1.2-0.1c0,0.4,0.2,0.9,0.4,1.2c0.3,0.4,0.6,0.6,1,0.8c0.5,0.2,1,0.3,1.5,0.3
				c0.5,0,0.9-0.1,1.3-0.2c0.3-0.1,0.6-0.3,0.9-0.6c0.2-0.2,0.3-0.5,0.3-0.9c0-0.3-0.1-0.6-0.3-0.8c-0.2-0.3-0.6-0.5-0.9-0.6
				c-0.6-0.2-1.2-0.4-1.8-0.5c-0.7-0.1-1.3-0.3-1.9-0.6c-0.4-0.2-0.8-0.5-1.1-0.9c-0.2-0.4-0.4-0.8-0.3-1.2c0-0.5,0.1-1,0.4-1.4
				c0.3-0.5,0.7-0.8,1.2-1c0.6-0.2,1.2-0.3,1.8-0.3c0.7,0,1.3,0.1,2,0.4c0.5,0.2,1,0.6,1.3,1.1c0.3,0.5,0.5,1,0.5,1.6l-1.2,0.1
				c0-0.6-0.3-1.1-0.7-1.4c-0.5-0.4-1.1-0.5-1.7-0.5c-0.6-0.1-1.2,0.1-1.8,0.4c-0.3,0.2-0.5,0.6-0.5,1.1c0,0.3,0.1,0.7,0.4,0.9
				c0.6,0.4,1.3,0.6,2,0.7c0.8,0.1,1.5,0.4,2.2,0.6c0.5,0.2,0.9,0.6,1.2,1c0.3,0.4,0.4,0.9,0.4,1.4c0,0.5-0.2,1.1-0.5,1.5
				c-0.3,0.5-0.8,0.9-1.3,1.1c-0.6,0.3-1.3,0.4-1.9,0.4c-0.8,0-1.6-0.1-2.3-0.4c-0.6-0.3-1.1-0.7-1.4-1.2
				C362.5,419.4,362.3,418.8,362.3,418.1z"/>
			<path class="st11" d="M372.1,421.3v-10h3.7c0.5,0,1,0,1.5,0.1c0.4,0.1,0.9,0.2,1.2,0.5c0.3,0.3,0.6,0.6,0.8,1
				c0.5,1.2,0.3,2.6-0.5,3.5c-0.8,0.7-1.9,1-2.9,0.9h-2.6v4.1L372.1,421.3z M373.4,416.1h2.6c0.6,0.1,1.3-0.1,1.8-0.5
				c0.4-0.3,0.6-0.8,0.5-1.3c0-0.4-0.1-0.8-0.3-1.1c-0.2-0.3-0.5-0.5-0.8-0.6c-0.4-0.1-0.8-0.1-1.2-0.1h-2.6L373.4,416.1
				L373.4,416.1z"/>
			<path class="st11" d="M381,416.5c-0.1-1.4,0.4-2.8,1.3-3.9c0.9-0.9,2.2-1.5,3.5-1.4c0.9,0,1.7,0.2,2.5,0.7
				c0.7,0.4,1.3,1.1,1.7,1.8c0.4,0.8,0.6,1.8,0.6,2.7c0,0.9-0.2,1.9-0.6,2.7c-0.4,0.8-1,1.4-1.7,1.8c-0.8,0.4-1.6,0.6-2.5,0.6
				c-0.9,0-1.7-0.2-2.5-0.7c-0.7-0.4-1.3-1.1-1.7-1.9C381.2,418.2,381,417.3,381,416.5z M382.4,416.5c-0.1,1,0.3,2.1,1,2.8
				c1.3,1.4,3.4,1.4,4.8,0.1c0,0,0.1-0.1,0.1-0.1c0.7-0.8,1-1.9,1-3c0-0.7-0.1-1.5-0.4-2.1c-0.3-0.6-0.7-1.1-1.2-1.4
				c-0.5-0.3-1.2-0.5-1.8-0.5c-0.9,0-1.8,0.3-2.4,1C382.6,414.1,382.2,415.3,382.4,416.5L382.4,416.5z"/>
			<path class="st11" d="M392.3,421.3v-10h4.4c0.7,0,1.4,0.1,2,0.3c0.5,0.2,0.9,0.5,1.1,1c0.3,0.5,0.4,1,0.4,1.5
				c0,0.7-0.2,1.3-0.7,1.8c-0.6,0.5-1.3,0.9-2.1,0.9c0.3,0.1,0.6,0.3,0.8,0.5c0.4,0.4,0.8,0.8,1.1,1.3l1.7,2.7h-1.7l-1.3-2.1
				c-0.4-0.6-0.7-1.1-1-1.4c-0.2-0.3-0.4-0.5-0.7-0.7c-0.2-0.1-0.4-0.2-0.6-0.3c-0.2,0-0.5,0-0.7,0h-1.5v4.4h-1.3L392.3,421.3z
				 M393.6,415.7h2.9c0.5,0,1,0,1.4-0.2c0.3-0.1,0.6-0.3,0.8-0.6c0.2-0.3,0.3-0.6,0.3-0.9c0-0.4-0.2-0.9-0.5-1.2
				c-0.5-0.3-1-0.5-1.6-0.5h-3.2L393.6,415.7L393.6,415.7z"/>
			<path class="st11" d="M404.7,421.3v-8.8h-3.3v-1.2h7.9v1.2H406v8.8H404.7z"/>
		</g>
	</g>
</g>
</svg>
