<svg id="Layer_1" data-name="Layer 1" xmlns="http://www.w3.org/2000/svg" viewBox="0 0 805 500">
  <defs>
    <style>
      .cls-1 {
        font-size: 436.33px;
        font-family: DejaVuSans, DejaVuSans;
      }

      .cls-1, .cls-2, .cls-6 {
        fill: #5470bd;
      }

      .cls-2 {
        opacity: 0.4;
      }

      .cls-3 {
        fill: #a2cdeb;
        opacity: 0.7;
      }

      .cls-4 {
        fill: #3b91db;
      }

      .cls-5 {
        fill: #3f539e;
      }

      .cls-7 {
        opacity: 0.6;
      }

      .cls-8 {
        fill: #d6eaf9;
      }

      .cls-9 {
        fill: #fff;
      }
    </style>
  </defs>
  <title>404-icon</title>
  <g>
    <text class="cls-1" transform="translate(84.64 378.61)">4</text>
    <text class="cls-1" transform="translate(555.53 378.61)">4</text>
  </g>
  <g>
    <path class="cls-2" d="M564.85,158.92a122.54,122.54,0,0,0-74.07-85.11,122.71,122.71,0,0,1-114,215.69,122.49,122.49,0,0,0,78.72,20.71l7.94,32.7a17.53,17.53,0,0,0-5,16.92L478,440.74l.67,2.76L482,456.91a20.75,20.75,0,0,0,40.32-9.79L519,433.7l-1-4.22L502.12,364l-1-4.22L498.72,350a17.53,17.53,0,0,0-12.24-12.72L478.87,306A122.7,122.7,0,0,0,564.85,158.92Z"/>
    <path class="cls-3" d="M321.6,217.7A122.69,122.69,0,0,1,501.8,82.26,122.7,122.7,0,1,0,361,281.91,122.13,122.13,0,0,1,321.6,217.7Z"/>
    <rect class="cls-4" x="449.23" y="291.14" width="23.71" height="90.65" transform="translate(-66.39 118.34) rotate(-13.65)"/>
    <path class="cls-5" d="M463.49,332.81l-6.23,1.51a17.54,17.54,0,0,0-12.91,21.19l23.58,97.08a20.75,20.75,0,0,0,40.32-9.79l-23.58-97.08A17.54,17.54,0,0,0,463.49,332.81Z"/>
    <path class="cls-6" d="M460.79,333.46l-3.53.86a17.54,17.54,0,0,0-12.91,21.19l23.58,97.08A20.75,20.75,0,0,0,493,467.86l.41-.12Z"/>
    <path class="cls-4" d="M451.43,296.72A124.82,124.82,0,1,1,543.26,146,125,125,0,0,1,451.43,296.72ZM396.36,70a108.52,108.52,0,1,0,131.06,79.84A108.64,108.64,0,0,0,396.36,70Z"/>
    <path class="cls-5" d="M464.86,301.81l-3-12.19-23,5.6,3,12.19c3.88-.56,7.77-1.29,11.66-2.24S461.16,303.09,464.86,301.81Z"/>
    <path class="cls-4" d="M451.43,296.72A124.82,124.82,0,1,1,543.26,146,125,125,0,0,1,451.43,296.72ZM396.36,70a108.52,108.52,0,1,0,131.06,79.84A108.64,108.64,0,0,0,396.36,70Z"/>
    <g class="cls-7">
      <path class="cls-8" d="M396.36,70a108.52,108.52,0,1,0,131.06,79.84A108.64,108.64,0,0,0,396.36,70Z"/>
    </g>
    <path class="cls-9" d="M340,203.93a6.52,6.52,0,0,1-7.87-4.8A92.69,92.69,0,0,1,400.2,87.31,6.52,6.52,0,1,1,403.27,100a79.63,79.63,0,0,0-58.52,96.07A6.52,6.52,0,0,1,340,203.93Z"/>
    <rect class="cls-9" x="446.65" y="360.31" width="41.5" height="4.35" transform="translate(-72.35 120.56) rotate(-13.65)"/>
    <rect class="cls-9" x="463.58" y="429.99" width="41.5" height="4.35" transform="translate(-88.32 126.52) rotate(-13.65)"/>
  </g>
</svg>
