<?xml version="1.0" encoding="utf-8"?>
<!-- Generator: Adobe Illustrator 21.1.0, SVG Export Plug-In . SVG Version: 6.00 Build 0)  -->
<svg version="1.1" xmlns="http://www.w3.org/2000/svg" xmlns:xlink="http://www.w3.org/1999/xlink" x="0px" y="0px"
	 viewBox="0 0 1900 1080" style="enable-background:new 0 0 1900 1080;" xml:space="preserve">
<style type="text/css">
	.st0{fill-rule:evenodd;clip-rule:evenodd;fill:#FFFFFF;}
	.st1{fill-rule:evenodd;clip-rule:evenodd;fill:none;}
	.st2{fill-rule:evenodd;clip-rule:evenodd;fill:#D2DDFF;}
	.st3{fill:#D2DDFF;}
	.st4{fill:#5D6FBA;}
	.st5{font-family:'DejaVuSans';}
	.st6{font-size:436.3265px;}
	.st7{opacity:0.4;fill:#5D6FBA;}
	.st8{opacity:0.7;fill:#AFCDEA;}
	.st9{fill:#5F91D9;}
	.st10{fill:#47549B;}
	.st11{opacity:0.6;}
	.st12{fill:#DCEAF9;}
	.st13{fill:#FFFFFF;}
</style>
<g id="BACKGROUND">
	<rect y="0" class="st0" width="1890.7" height="1080"/>
	<g>
		<g>
			<path class="st1" d="M1716.1,273.3c-52.3,11.2-101.7,27.4-149.4,43c-39.8,13-81,26.5-123.8,37.1c-69.9,17.2-145.6,27-218.9,36.4
				c-62.7,8.1-127.6,16.5-188.7,29.5c-28.5,6.1-57.1,13.3-84.8,20.3c-73,18.5-148.5,37.7-228.4,36.7
				c-75.4-0.8-146.2-19.4-214.7-37.4c-64.4-16.9-131-34.4-201.9-37.4c-27.5-1.2-55.5-0.1-82.5,0.9c-23.6,0.9-47.9,1.8-71.8,1.2
				c-60.8-1.4-109.5-14.2-133.5-35.1c-3.2-2.8-6.1-5.9-8.9-8.8C6,356.9,3.2,354,0,351.2v4.1c1.9,1.8,3.7,3.7,5.4,5.5
				c2.8,3,5.8,6.1,9.1,9c24.7,21.5,74.4,34.6,136.5,36.1c24.1,0.6,48.6-0.4,72.2-1.2c26.9-1,54.8-2.1,82-0.9
				c70.2,3,136.5,20.4,200.6,37.2c68.8,18.1,140,36.7,216.2,37.6c80.7,0.9,156.6-18.3,230-36.9c27.6-7,56.2-14.2,84.6-20.3
				c60.9-13,125.7-21.3,188.3-29.4c73.4-9.5,149.4-19.3,219.6-36.6c42.9-10.6,84.2-24.1,124.1-37.2c47.6-15.6,96.8-31.7,148.8-42.8
				c66.4-14.2,125.1-16.3,173.3-11.5v-2.4c-6.8-0.6-13.8-1.1-20.9-1.4C1821.4,257.7,1766.7,262.4,1716.1,273.3z"/>
			<path class="st2" d="M127.3,662.4c19.4-6.5,43.3-7.2,64.3-7.8l486.1-13.5c102.8-2.8,209-5.8,313.4-0.9
				c29.9,1.4,60.3,3.5,89.6,5.5c57.2,3.9,116.3,8,174.8,7.2c105.8-1.4,210-18.3,310.7-34.7c103-16.8,209.5-34.1,317.6-34.7
				c2.3,0,4.7,0,7,0v-2.2c-2.3,0-4.7,0-7,0c-108.6,0.5-215.4,17.9-318.6,34.8c-100.5,16.4-204.4,33.3-309.7,34.6
				c-58.3,0.8-117.3-3.3-174.3-7.2c-29.4-2-59.8-4.1-89.7-5.5c-104.6-4.9-211-2-313.9,0.9l-486.1,13.5c-21.5,0.6-45.9,1.3-66.1,8.1
				c-19.3,6.5-34.1,21.3-24.5,33.8l0.5,0.6l1139.9,5.9c94.4,0.5,191.9,1,283.2-17.1c17.8-3.5,35.5-7.8,52.6-11.9
				c34.1-8.2,69.3-16.8,106.3-19.5c71.9-5.4,137.9,10.4,207.4,27.7v-2.4c-66.7-16.6-135.6-32.9-207.9-27.5
				c-37.5,2.8-73,11.4-107.3,19.7c-17.1,4.1-34.7,8.4-52.4,11.9c-90.7,18-187.9,17.4-281.9,17l-1137.4-5.9
				C96,681.5,109.7,668.3,127.3,662.4z"/>
			<path class="st2" d="M1732.5,180.6c-55.7,3.1-110.6,11.7-163.6,19.9c-43.2,6.7-87.9,13.7-132.7,17.7
				c-71.6,6.4-145.4,5.3-216.8,4.3c-49.4-0.7-100.5-1.4-150.5,0.3c-76.2,2.6-152.6,11-226.5,19.1c-82.7,9.1-168.3,18.4-253.6,19.7
				c-42.2,0.6-85.1-0.7-126.7-2c-56.3-1.7-114.5-3.5-171.6-0.5c-60.4,3.2-121.6,11.9-180.8,20.4C73.4,284.8,36.7,290,0,294v2.2
				c37.1-4,74-9.2,110.5-14.4c59-8.4,120.1-17.1,180.2-20.3c56.8-3.1,114.9-1.3,171.1,0.5c41.6,1.3,84.7,2.6,127,2
				c85.7-1.3,171.4-10.7,254.3-19.8c73.7-8.1,150-16.4,226-19c49.9-1.7,100.9-1,150.2-0.3c71.6,1,145.6,2,217.5-4.4
				c45-4,89.8-11,133.1-17.7c52.9-8.2,107.7-16.8,163-19.9c49-2.7,99.1-1.3,147.6,0.2c3.4,0.1,6.8,0.2,10.3,0.3v-2.2
				c-3.4-0.1-6.7-0.2-10.1-0.3C1832,179.4,1781.8,177.9,1732.5,180.6z"/>
			<path class="st2" d="M301.1,1004.2c46.2-0.9,93.1,1.8,138.4,4.4c35.2,2,71.7,4.1,107.7,4.5c138,1.6,274-20.7,405.5-42.3l15.6-2.6
				c87.8-14.4,166.9-25.4,244.7-15.3c25.7,3.4,50.7,9.1,74.9,14.6c13.5,3.1,27.4,6.3,41.4,9c122.8,24.3,258.1,17.7,388.9,11.4
				c57.3-2.8,115.3-5.6,172.5-5.7v-2.2c-57.3,0.2-115.5,3-172.8,5.8c-130.4,6.3-265.3,12.9-387.4-11.3c-13.9-2.7-27.8-5.9-41.2-9
				c-24.3-5.6-49.5-11.3-75.5-14.7c-78.7-10.2-158.2,0.9-246.5,15.3l-15.6,2.6c-131.2,21.5-266.9,43.8-404.4,42.2
				c-35.8-0.4-72.2-2.5-107.4-4.5c-45.5-2.6-92.5-5.3-138.9-4.4c-71.3,1.3-144,10.8-214.3,20c-29.3,3.8-58.1,7.6-86.7,10.8v2.2
				c29.3-3.2,58.5-7.1,87.5-10.8C157.6,1015,230.1,1005.5,301.1,1004.2z"/>
			<path class="st2" d="M0,62.2c40.6-0.3,81.2,0.8,121.4,4.6c36.2,3.4,72.3,8.9,107.2,14.2c36.3,5.6,73.9,11.3,111.7,14.7
				c90.2,8,182.9,2.6,272.5-2.6c76.1-4.4,154.8-9,231.8-5.4c66.7,3.1,133.9,12.5,198.9,21.5c106.6,14.8,216.8,30.1,325.3,17.9
				c25.4-2.9,50.6-7.3,75-11.5c32-5.6,65.2-11.4,98.9-13.7c53.1-3.6,107.2,1.4,159.5,6.3c47.2,4.4,95.9,8.9,144.2,7.2
				c14.7-0.5,29.7-1.6,44.5-2.9v-2.2c-14.9,1.2-30,2.4-44.7,2.9c-47.8,1.7-96.4-2.8-143.3-7.2c-52.6-4.9-106.9-10-160.5-6.3
				c-34,2.3-67.3,8.1-99.5,13.8c-24.3,4.2-49.4,8.6-74.6,11.5c-107.7,12.2-217.5-3.1-323.6-17.8c-65.1-9.1-132.5-18.4-199.4-21.6
				C767.5,82,688.6,86.5,612.4,91c-89.4,5.2-181.8,10.6-271.5,2.6c-37.6-3.3-75.1-9.1-111.3-14.6c-35-5.3-71.2-10.9-107.5-14.3
				c-40.5-3.8-81.3-4.9-122-4.6V62.2z"/>
			<path class="st2" d="M218.6,612.7c40.5-1.4,81.4-4.9,121-8.2c54.2-4.6,110.2-9.3,165.7-8.8c55.6,0.5,111.4,6.4,165.4,12
				c42,4.4,85.5,8.9,128.7,11c147.3,6.9,293.6-14.7,435-35.5c81.3-12,165.4-24.4,249.2-31.4c61.3-5.1,124.4-7.4,185.4-9.6
				c73.1-2.7,148.4-5.4,221.7-13v-2.2c-73.4,7.6-148.7,10.4-222,13.1c-61.1,2.2-124.2,4.5-185.7,9.6c-83.9,7-168.1,19.4-249.6,31.4
				c-141.1,20.8-287.1,42.4-433.8,35.5c-43-2-86.4-6.6-128.3-10.9c-54.1-5.6-110.1-11.5-166-12c-55.8-0.5-112,4.2-166.3,8.8
				c-39.5,3.3-80.3,6.8-120.7,8.2C145.3,613,72.1,609,0,603v2.2C72.1,611.2,145.4,615.2,218.6,612.7z"/>
			<path class="st2" d="M50.5,991.7c68-0.7,134.6-11.5,198.9-22c41.2-6.7,83.7-13.7,126.3-17.9c58.3-5.8,119.4-6.8,178.5-7.8
				c100.4-1.7,204.3-3.4,295.4-28.9c13.8-3.9,27.5-8.3,40.6-12.6c23-7.5,46.7-15.2,72.1-20c48.2-9.1,99.3-7.6,156.2-4.8
				c37.9,1.8,76.6,3.9,114,6c217.8,11.7,442.8,23.8,658.1-2v-2.2c-215,25.9-439.9,13.8-657.7,2.1c-37.4-2-76.1-4.1-114-6
				c-57.3-2.8-108.8-4.4-157.7,4.9c-25.7,4.9-49.6,12.7-72.7,20.2c-13.1,4.3-26.7,8.7-40.4,12.6c-90.3,25.2-193.8,27-293.8,28.6
				c-59.2,1-120.5,2-179.1,7.8c-42.8,4.3-85.5,11.2-126.7,17.9c-64.2,10.5-130.5,21.3-198,21.9c-16.8,0.2-33.6-0.3-50.5-1.2v2.2
				C16.9,991.4,33.7,991.9,50.5,991.7z"/>
			<path class="st2" d="M275,1064.1c54.3-2.8,109-7.7,161.9-12.4c49.9-4.4,101.4-9,152.4-11.9c122.6-6.9,247.7-4.2,368.7-1.6
				l932.7,19.9v-2.2l-932.5-19.9c-121.1-2.6-246.3-5.3-369.2,1.6c-51.1,2.9-102.7,7.5-152.7,11.9c-52.9,4.7-107.5,9.6-161.7,12.4
				c-67.7,3.5-137.3,4-204.5,4.5c-23.3,0.2-46.7,0.3-70.2,0.6v2.2c23.5-0.3,47-0.5,70.3-0.6C137.5,1068.2,207.1,1067.7,275,1064.1z"
				/>
			<path class="st2" d="M174.2,779.6c20.8-8.3,42.4-16.9,63.9-24c80.5-26.3,175.4-33,249.1-36c127.8-5.1,251.8-0.8,368.5,12.8
				c26,3,52.3,6.6,77.8,10.1c67.2,9.1,136.7,18.6,206.8,19c82.4,0.5,163.5-11.5,242.2-23.1c24.4-3.6,49.6-7.3,74.4-10.6
				c84.9-11.2,209.9-22.9,315,5.5c8.9,2.4,17.9,5.2,26.5,7.8c20.4,6.3,41.5,12.7,64.6,15.5c8.9,1.1,18.2,1.6,27.6,1.8v-2.2
				c-9.2-0.2-18.2-0.7-26.8-1.8c-22.5-2.7-43.4-9.1-63.6-15.3c-8.7-2.7-17.7-5.4-26.7-7.9c-50.8-13.7-139.1-29.3-317.5-5.7
				c-24.9,3.3-50.1,7-74.5,10.6c-78.4,11.6-159.4,23.6-241.2,23.1c-69.7-0.4-138.9-9.8-205.9-18.9c-25.5-3.5-51.9-7.1-77.9-10.1
				c-117-13.7-241.4-18-369.6-12.9c-74.1,3-169.5,9.8-250.7,36.3c-21.7,7.1-43.3,15.7-64.2,24.1C118,799.4,62.1,821.7,0,819.2v2.2
				C63.3,823.8,119.6,801.4,174.2,779.6z"/>
			<path class="st2" d="M1361.1,261.3c-71.6,11-145.7,22.4-218.1,30.1c-115.6,12.3-235.2,15.7-350.8,19
				c-96.1,2.7-195.4,5.5-292.2,13.4c-18.7,1.5-41.1,4.6-48.5,15.1c-3.8,5.4-2.7,12.2,3.1,19.3c21.3,25.9,76.1,36.7,167.5,33
				c127-5.1,255.4-12.2,381.7-21.1c93.8-6.6,185-14.1,270.5-33.9c32.8-7.6,64.8-17.1,95.7-26.2c22-6.5,44.7-13.2,67.5-19.2
				c127.6-33.5,268.9-47.2,408.7-39.5c15.5,0.9,30.3,2,44.4,3.4v-2.2c-14.1-1.4-28.7-2.5-44.1-3.3c-140.5-7.7-282.5,6-410.7,39.7
				c-22.9,6-45.7,12.8-67.7,19.3c-30.8,9.1-62.7,18.6-95.4,26.2c-85.1,19.7-176,27.2-269.5,33.8c-126.3,8.9-254.6,16-381.5,21.1
				c-89.7,3.6-143.3-6.8-163.8-31.7c-5.4-6.5-6.4-12.8-3-17.6c6.7-9.4,27.8-12.3,45.5-13.7c96.6-7.9,195.8-10.7,291.8-13.4
				c115.8-3.3,235.5-6.7,351.3-19c72.6-7.7,146.7-19.1,218.4-30.1c175-26.9,355.6-54.6,528.6-31.1v-2.2
				C1717,206.6,1536.3,234.4,1361.1,261.3z"/>
			<path class="st2" d="M1306.6,912.1c-48.4-0.5-76.1,6.1-84.8,20.2l-0.7,1.1l2,0.3c218.6,31.8,442.9,44.1,667.6,36.6v-2.2
				c-223.7,7.4-446.9-4.7-664.6-36.3c8.8-12.3,35.2-18.2,80.4-17.7c194.4,1.9,390.2-2.8,584.1-14v-2.2
				C1696.8,909.3,1501,914,1306.6,912.1z"/>
			<path class="st2" d="M1672,926.8c71.9-6.6,145.5-8.9,218.7-6.9v-2.2c-73.5-2-147.3,0.3-219.3,6.9c-14.1,1.3-32.4,7.6-36.2,14.5
				c-1.7,3.2-0.3,6.1,4.2,8.5l0.4,0.2l0.6,0.1c82.8,8.7,166.9,10,250.3,3.9v-2.2c-83,6.1-166.7,4.9-249.1-3.7
				c-3.1-1.8-4-3.9-2.8-6.1C1642.1,933.8,1659,928,1672,926.8z"/>
		</g>
		<path class="st2" d="M1890.7,29.1c-61.4-0.1-123.5,0.8-184.2,5c-27.4,1.9-55.1,4.5-81.9,7c-39.3,3.7-79.9,7.5-120.2,9.1
			c-83,3.3-167.3-2.5-248.9-8.1c-28.4-2-57.8-4-86.7-5.6c-105.6-5.9-214.4-6.8-319.6-7.7c-177.5-1.5-360.1-3-532.5-28.7h-14.5
			C479,27.8,666.7,29.3,849.1,30.9c105.1,0.9,213.9,1.8,319.3,7.7c28.9,1.6,58.3,3.6,86.7,5.6c65.2,4.5,132.1,9.1,198.8,9.1
			c16.9,0,33.9-0.3,50.7-1c40.5-1.6,81.2-5.4,120.6-9.1c26.8-2.5,54.4-5.1,81.8-7c60.5-4.1,122.4-5,183.7-5V29.1z"/>
		<path class="st2" d="M1714.8,404.8c-33.4-15.6-80.4,2.9-111.5,15.2c-53.3,21-118.2,33.7-182.9,35.6c-16.9,0.5-34.2,0.3-51,0.1
			c-27.7-0.3-56.4-0.6-84.2,2.2c-27.3,2.8-53.7,8.6-79.2,14.2c-6,1.3-12,2.6-18,3.9c-184.5,39.4-381.8,43.8-584.5,45.1
			c-74.2,0.5-141,0.3-207.3-5.9c-24.5-2.3-49.1-5.5-73-8.6c-33.8-4.4-68.8-9-104-11.1c-38.1-2.3-77.2-1.7-115-1.2
			c-34.4,0.5-69.6,1-104.2-0.6v2.2c34.7,1.6,69.9,1.1,104.3,0.6c37.7-0.5,76.7-1.1,114.5,1.2c34.9,2.1,69.8,6.6,103.5,11
			c23.9,3.1,48.6,6.3,73.2,8.7c66.6,6.3,133.6,6.4,208,6c203.1-1.3,400.7-5.7,585.8-45.2c6-1.3,12-2.6,18-3.9
			c25.3-5.6,51.5-11.3,78.5-14.1c27.4-2.8,55.9-2.5,83.5-2.1c16.8,0.2,34.2,0.4,51.3-0.1c66.3-2,130.2-14.4,184.8-36
			c38.3-15.1,78.1-28.8,106.9-15.3c18.1,8.5,18.8,24.6,10.2,35.4c-10,12.6-30.5,21.6-47.2,28c-74.2,28.3-160.1,40.9-256.7,53.3
			c-157.2,20.2-317.5,38.2-476.4,53.5c-52.5,5.1-99.9,9.2-148,9c-49.6-0.2-99.6-5.2-147.8-10c-12.7-1.3-25.4-2.5-38.2-3.7
			c-137.8-12.9-279.9-16.2-417.2-19.5c-63-1.5-127-3-191.1-5.4v2.2c64.1,2.4,128,4,191,5.4c137.2,3.2,279.2,6.6,416.8,19.5
			c12.7,1.2,25.4,2.5,38.1,3.7c48.4,4.8,98.5,9.9,148.5,10.1c1.1,0,2.2,0,3.3,0c47.3,0,93.9-4.1,145.3-9.1
			c158.9-15.3,319.3-33.4,476.6-53.5c96.9-12.4,183.2-25.1,257.9-53.6c17.2-6.6,38.2-15.8,48.6-28.9
			C1735.4,430.9,1734.6,414.1,1714.8,404.8z"/>
		<path class="st2" d="M1656.3,788.5c-52.4-22-124.1-13-187.4-5.1c-5.2,0.6-10.4,1.3-15.5,1.9c-105.1,12.8-214.2,13.7-319.8,14.5
			l-265.9,2.1c-94.7,0.8-192.6,1.5-287.2,12.6c-26.4,3.1-52.9,7-78.5,10.8c-44.1,6.5-89.8,13.3-135.8,15.9
			c-10.1,0.6-20.6,1-30.7,1.3c-37.4,1.4-76,2.8-108.9,13.3c-10.3,3.3-19.8,7.4-29,11.4c-11.2,4.9-22.7,9.9-35.5,13.3
			c-25.8,6.9-56.1,7.1-82.8,7.4L0,888.6v2.2l79.3-0.6c27.1-0.2,57.8-0.5,84.3-7.6c13.2-3.5,24.9-8.6,36.2-13.5
			c9.1-4,18.5-8,28.5-11.3c32.1-10.3,70.3-11.7,107.3-13.1c10.1-0.4,20.6-0.8,30.8-1.3c46.3-2.6,92.1-9.4,136.4-15.9
			c25.6-3.8,52.1-7.7,78.3-10.8c94.2-11,192-11.8,286.5-12.5l265.9-2.1c105.7-0.8,215.1-1.7,320.5-14.6c5.1-0.6,10.3-1.3,15.5-1.9
			c62.5-7.8,133.3-16.7,184.4,4.7c7.3,3.1,19.5,9.4,18.9,17.4c-0.9,12.1-28.4,17.2-40.2,18.8c-48.2,6.7-99.1,6-148.3,5.4
			c-5.9-0.1-11.7-0.1-17.6-0.2c-233.6-2.5-466.1,14.8-690.9,51.4c-31.5,5.1-63.7,10.8-94.7,16.2C539.8,924,393.5,949.6,246,939.9
			c-81.7,1.9-164,4.7-246,8.4v2.2c82.1-3.7,164.3-6.6,245.9-8.5c147.9,9.7,294.7-15.9,436.6-40.8c31.1-5.4,63.2-11.1,94.7-16.2
			c224.4-36.5,456.5-53.8,689.8-51.4c5.8,0.1,11.7,0.1,17.6,0.2c49.4,0.6,100.5,1.3,149.2-5.5c12.6-1.7,42-7.3,43.1-20.8
			C1677.4,798.7,1664.2,791.8,1656.3,788.5z"/>
		<path class="st3" d="M1157.4,167c-7.3-7-24-7.3-37.7-6.7C747.4,175.6,368.2,176.4,0,176.5v2.2c368.3-0.1,747.5-0.9,1120-16.2
			c12.6-0.5,27.9-0.3,34.2,5.7c2.8,2.7,3.1,5.5,0.8,8.3c-5.6,6.9-24.6,12.2-39.6,13.7c-79,7.7-159.8,11.3-240,10.8
			c-12.9-0.1-26-0.3-38.7-0.5c-39-0.6-79.3-1.2-118.7,1.3c-31,2-61.9,5.8-91.8,9.6c-14.7,1.9-30,3.8-45,5.4
			c-53,5.8-107.6,8.9-160.5,11.9L97.9,246.9c-32.3,1.8-65,3.7-97.9,5.2v2.2c33-1.5,65.9-3.4,98.3-5.2l322.8-18.3
			c52.9-3,107.6-6.1,160.8-12c15.1-1.7,30.3-3.6,45.1-5.4c29.8-3.7,60.6-7.6,91.4-9.6c39.2-2.5,79.4-1.9,118.2-1.3
			c12.7,0.2,25.8,0.4,38.7,0.5c80.4,0.5,161.4-3.1,240.7-10.8c16-1.6,36.2-7.3,42.4-14.9C1161.2,173.9,1160.8,170.3,1157.4,167z"/>
	</g>
</g>
<g id="OBJECTS">
	<g>
		<g>
			<text transform="matrix(1 0 0 1 602.642 633.6105)" class="st4 st5 st6">4</text>
			<text transform="matrix(1 0 0 1 1073.5293 633.6105)" class="st4 st5 st6">4</text>
		</g>
	</g>
	<g>
		<path class="st7" d="M1082.8,413.9c-9.8-40.2-38.3-70.9-74.1-85.1c24.4,16.5,43,41.8,50.4,72.7c16,65.9-24.4,132.2-90.3,148.2
			c-25.6,6.2-51.4,3.9-74.2-5.2c22.6,15.3,50.3,23,78.7,20.7l7.9,32.7c-4.4,4.2-6.6,10.6-5,16.9l19.7,80.9l0.7,2.8l3.3,13.4
			c2.7,11.1,13.9,18,25.1,15.3c11.1-2.7,18-13.9,15.3-25.1l-3.3-13.4l-1-4.2l-15.9-65.5l-1-4.2l-2.4-9.8c-1.5-6.4-6.4-11-12.2-12.7
			l-7.6-31.3C1060.2,543.2,1098.5,478.3,1082.8,413.9z"/>
		<path class="st8" d="M839.6,472.7c-16-65.9,24.4-132.2,90.3-148.2c31.8-7.7,63.6-2.3,89.9,12.8c-28.9-24.8-69-35.8-108.8-26.1
			c-65.9,16-106.3,82.4-90.3,148.2c8.3,34.1,30.1,61.4,58.3,77.5C860.1,520.7,845.9,498.7,839.6,472.7z"/>
		
			<rect x="967.2" y="546.1" transform="matrix(0.9717 -0.236 0.236 0.9717 -111.9394 247.8042)" class="st9" width="23.7" height="90.6"/>
		<path class="st10" d="M981.5,587.8l-6.2,1.5c-9.4,2.3-15.2,11.8-12.9,21.2l23.6,97.1c2.7,11.1,13.9,18,25.1,15.3
			c11.1-2.7,18-13.9,15.3-25.1l-23.6-97.1C1000.4,591.3,990.9,585.5,981.5,587.8z"/>
		<path class="st4" d="M978.8,588.5l-3.5,0.9c-9.4,2.3-15.2,11.8-12.9,21.2l23.6,97.1c2.7,11.1,13.9,18,25.1,15.3
			c0.1,0,0.3-0.1,0.4-0.1L978.8,588.5z"/>
		<g>
			<path class="st9" d="M969.4,551.7c-66.9,16.2-134.5-24.9-150.7-91.8s24.9-134.5,91.8-150.7c66.9-16.2,134.5,24.9,150.7,91.8
				C1077.5,467.9,1036.3,535.5,969.4,551.7z M914.4,325c-58.1,14.1-94,72.9-79.8,131.1c14.1,58.1,72.9,94,131.1,79.8
				c58.1-14.1,94-72.9,79.8-131.1C1031.3,346.7,972.5,310.9,914.4,325z"/>
		</g>
		<path class="st10" d="M982.9,556.8l-3-12.2l-23,5.6l3,12.2c3.9-0.6,7.8-1.3,11.7-2.2C975.4,559.2,979.2,558.1,982.9,556.8z"/>
		<g>
			<path class="st9" d="M969.4,551.7c-66.9,16.2-134.5-24.9-150.7-91.8s24.9-134.5,91.8-150.7c66.9-16.2,134.5,24.9,150.7,91.8
				C1077.5,467.9,1036.3,535.5,969.4,551.7z M914.4,325c-58.1,14.1-94,72.9-79.8,131.1c14.1,58.1,72.9,94,131.1,79.8
				c58.1-14.1,94-72.9,79.8-131.1C1031.3,346.7,972.5,310.9,914.4,325z"/>
		</g>
		<g class="st11">
			<path class="st12" d="M914.4,325c-58.1,14.1-94,72.9-79.8,131.1c14.1,58.1,72.9,94,131.1,79.8c58.1-14.1,94-72.9,79.8-131.1
				C1031.3,346.7,972.5,310.9,914.4,325z"/>
		</g>
		<g>
			<g>
				<path class="st13" d="M858,458.9c-3.5,0.8-7-1.3-7.9-4.8c-12-49.6,18.5-99.8,68.1-111.8c3.5-0.8,7,1.3,7.9,4.8
					c0.8,3.5-1.3,7-4.8,7.9c-42.6,10.4-68.9,53.4-58.5,96.1C863.6,454.6,861.5,458.1,858,458.9z"/>
			</g>
		</g>
		
			<rect x="964.7" y="615.3" transform="matrix(0.9717 -0.236 0.236 0.9717 -117.9018 250.031)" class="st13" width="41.5" height="4.3"/>
		
			<rect x="981.6" y="685" transform="matrix(0.9717 -0.236 0.236 0.9717 -133.8701 255.9895)" class="st13" width="41.5" height="4.3"/>
	</g>
</g>
<g id="DESIGNED_BY_FREEPIK">
</g>
</svg>
