<?xml version="1.0" encoding="iso-8859-1"?>
<!-- Generator: Adobe Illustrator 19.0.0, SVG Export Plug-In . SVG Version: 6.00 Build 0)  -->
<svg version="1.1" id="Layer_1" xmlns="http://www.w3.org/2000/svg" xmlns:xlink="http://www.w3.org/1999/xlink" x="0px" y="0px"
	 viewBox="0 0 512 512" style="enable-background:new 0 0 512 512;" xml:space="preserve">
<g transform="translate(1 1)">
	<g>
		<path style="fill:#63D3FD;" d="M246.467,502.467h42.667c-5.12-6.827-8.533-16.213-8.533-25.6c0-16.213,9.387-29.867,23.04-37.547
			c-7.68-8.533-18.773-13.653-31.573-13.653c-14.507,0-27.307,6.827-34.987,17.92c-3.413-24.747-24.747-43.52-50.347-43.52
			c-28.16,0-51.2,23.04-51.2,51.2c-28.16,0-51.2,23.04-51.2,51.2h102.4H246.467z"/>
		<path style="fill:#63D3FD;" d="M457.24,502.467c1.707-5.12,2.56-11.093,2.56-17.067c0-28.16-23.04-51.2-51.2-51.2
			c-19.627,0-36.693,11.093-45.227,28.16c-5.973-16.213-22.187-28.16-40.107-28.16c-23.893,0-42.667,18.773-42.667,42.667
			c0,9.387,3.413,18.773,8.533,25.6H357.4H457.24z"/>
	</g>
	<path style="fill:#FFA800;" d="M237.933,144.067v298.667c7.68-10.24,20.48-17.067,34.133-17.067c11.947,0,23.04,5.12,31.573,13.653
		c5.973-3.413,12.8-5.12,19.627-5.12c17.92,0,34.133,11.947,40.107,28.16c8.533-16.213,25.6-28.16,45.227-28.16
		c5.973,0,11.947,0.853,17.067,2.56V144.067H237.933z"/>
	<path style="fill:#FFE100;" d="M237.933,144.067v298.667c7.68-10.24,20.48-17.067,34.133-17.067c11.947,0,23.04,5.12,31.573,13.653
		c5.973-3.413,12.8-5.12,19.627-5.12c17.92,0,36.693,0.853,42.667,17.067c8.533-16.213,5.973-11.093,17.067-17.067
		c5.12-2.56,11.947,0.853,17.067,2.56V144.067H237.933z"/>
	<path style="fill:#FFFFFF;" d="M135.533,451.267c0-28.16,23.04-51.2,51.2-51.2c25.6,0,46.933,18.773,50.347,43.52
		c0,0,0-0.853,0.853-0.853V144.067h51.2V7.533h-230.4v494.933h25.6C84.333,474.307,107.373,451.267,135.533,451.267"/>
	<path style="fill:#FFE100;" d="M161.133,417.133c0-28.16-2.56-17.067,25.6-17.067c25.6,0,46.933,18.773,50.347,43.52
		c0,0,0-0.853,0.853-0.853V144.067h51.2V7.533h-204.8V485.4l25.6-25.6C126.147,444.44,125.293,441.88,161.133,417.133"/>
	<path d="M502.467,511H7.533C2.413,511-1,507.587-1,502.467c0-5.12,3.413-8.533,8.533-8.533h494.933c5.12,0,8.533,3.413,8.533,8.533
		C511,507.587,507.587,511,502.467,511z"/>
	<path d="M280.6,408.6c-5.12,0-8.533-3.413-8.533-8.533V383c0-5.12,3.413-8.533,8.533-8.533s8.533,3.413,8.533,8.533v17.067
		C289.133,405.187,285.72,408.6,280.6,408.6z M280.6,357.4c-5.12,0-8.533-3.413-8.533-8.533V331.8c0-5.12,3.413-8.533,8.533-8.533
		s8.533,3.413,8.533,8.533v17.067C289.133,353.987,285.72,357.4,280.6,357.4z M280.6,306.2c-5.12,0-8.533-3.413-8.533-8.533V280.6
		c0-5.12,3.413-8.533,8.533-8.533s8.533,3.413,8.533,8.533v17.067C289.133,302.787,285.72,306.2,280.6,306.2z M280.6,255
		c-5.12,0-8.533-3.413-8.533-8.533V229.4c0-5.12,3.413-8.533,8.533-8.533s8.533,3.413,8.533,8.533v17.067
		C289.133,251.587,285.72,255,280.6,255z M280.6,203.8c-5.12,0-8.533-3.413-8.533-8.533V178.2c0-5.12,3.413-8.533,8.533-8.533
		s8.533,3.413,8.533,8.533v17.067C289.133,200.387,285.72,203.8,280.6,203.8z"/>
	<path d="M331.8,443.587c-5.12,0-8.533-3.413-8.533-8.533V434.2c0-5.12,3.413-8.533,8.533-8.533s8.533,3.413,8.533,8.533v0.853
		C340.333,440.173,336.92,443.587,331.8,443.587z M331.8,408.6c-5.12,0-8.533-3.413-8.533-8.533V383c0-5.12,3.413-8.533,8.533-8.533
		s8.533,3.413,8.533,8.533v17.067C340.333,405.187,336.92,408.6,331.8,408.6z M331.8,357.4c-5.12,0-8.533-3.413-8.533-8.533V331.8
		c0-5.12,3.413-8.533,8.533-8.533s8.533,3.413,8.533,8.533v17.067C340.333,353.987,336.92,357.4,331.8,357.4z M331.8,306.2
		c-5.12,0-8.533-3.413-8.533-8.533V280.6c0-5.12,3.413-8.533,8.533-8.533s8.533,3.413,8.533,8.533v17.067
		C340.333,302.787,336.92,306.2,331.8,306.2z M331.8,255c-5.12,0-8.533-3.413-8.533-8.533V229.4c0-5.12,3.413-8.533,8.533-8.533
		s8.533,3.413,8.533,8.533v17.067C340.333,251.587,336.92,255,331.8,255z M331.8,203.8c-5.12,0-8.533-3.413-8.533-8.533V178.2
		c0-5.12,3.413-8.533,8.533-8.533s8.533,3.413,8.533,8.533v17.067C340.333,200.387,336.92,203.8,331.8,203.8z"/>
	<path d="M383,449.56c-5.12,0-8.533-3.413-8.533-8.533V434.2c0-5.12,3.413-8.533,8.533-8.533c5.12,0,8.533,3.413,8.533,8.533v6.827
		C391.533,446.147,388.12,449.56,383,449.56z M383,408.6c-5.12,0-8.533-3.413-8.533-8.533V383c0-5.12,3.413-8.533,8.533-8.533
		c5.12,0,8.533,3.413,8.533,8.533v17.067C391.533,405.187,388.12,408.6,383,408.6z M383,357.4c-5.12,0-8.533-3.413-8.533-8.533
		V331.8c0-5.12,3.413-8.533,8.533-8.533c5.12,0,8.533,3.413,8.533,8.533v17.067C391.533,353.987,388.12,357.4,383,357.4z M383,306.2
		c-5.12,0-8.533-3.413-8.533-8.533V280.6c0-5.12,3.413-8.533,8.533-8.533c5.12,0,8.533,3.413,8.533,8.533v17.067
		C391.533,302.787,388.12,306.2,383,306.2z M383,255c-5.12,0-8.533-3.413-8.533-8.533V229.4c0-5.12,3.413-8.533,8.533-8.533
		c5.12,0,8.533,3.413,8.533,8.533v17.067C391.533,251.587,388.12,255,383,255z M383,203.8c-5.12,0-8.533-3.413-8.533-8.533V178.2
		c0-5.12,3.413-8.533,8.533-8.533c5.12,0,8.533,3.413,8.533,8.533v17.067C391.533,200.387,388.12,203.8,383,203.8z"/>
	<path d="M92.867,476.867c-5.12,0-8.533-3.413-8.533-8.533v-17.067c0-5.12,3.413-8.533,8.533-8.533s8.533,3.413,8.533,8.533v17.067
		C101.4,473.453,97.987,476.867,92.867,476.867z M92.867,425.667c-5.12,0-8.533-3.413-8.533-8.533v-17.067
		c0-5.12,3.413-8.533,8.533-8.533s8.533,3.413,8.533,8.533v17.067C101.4,422.253,97.987,425.667,92.867,425.667z M92.867,374.467
		c-5.12,0-8.533-3.413-8.533-8.533v-17.067c0-5.12,3.413-8.533,8.533-8.533s8.533,3.413,8.533,8.533v17.067
		C101.4,371.053,97.987,374.467,92.867,374.467z M92.867,323.267c-5.12,0-8.533-3.413-8.533-8.533v-17.067
		c0-5.12,3.413-8.533,8.533-8.533s8.533,3.413,8.533,8.533v17.067C101.4,319.853,97.987,323.267,92.867,323.267z M92.867,272.067
		c-5.12,0-8.533-3.413-8.533-8.533v-17.067c0-5.12,3.413-8.533,8.533-8.533s8.533,3.413,8.533,8.533v17.067
		C101.4,268.653,97.987,272.067,92.867,272.067z M92.867,220.867c-5.12,0-8.533-3.413-8.533-8.533v-17.067
		c0-5.12,3.413-8.533,8.533-8.533s8.533,3.413,8.533,8.533v17.067C101.4,217.453,97.987,220.867,92.867,220.867z M92.867,169.667
		c-5.12,0-8.533-3.413-8.533-8.533v-17.067c0-5.12,3.413-8.533,8.533-8.533s8.533,3.413,8.533,8.533v17.067
		C101.4,166.253,97.987,169.667,92.867,169.667z M92.867,118.467c-5.12,0-8.533-3.413-8.533-8.533V92.867
		c0-5.12,3.413-8.533,8.533-8.533s8.533,3.413,8.533,8.533v17.067C101.4,115.053,97.987,118.467,92.867,118.467z M92.867,67.267
		c-5.12,0-8.533-3.413-8.533-8.533V41.667c0-5.12,3.413-8.533,8.533-8.533s8.533,3.413,8.533,8.533v17.067
		C101.4,63.853,97.987,67.267,92.867,67.267z"/>
	<path d="M144.067,425.667c-5.12,0-8.533-3.413-8.533-8.533v-17.067c0-5.12,3.413-8.533,8.533-8.533c5.12,0,8.533,3.413,8.533,8.533
		v17.067C152.6,422.253,149.187,425.667,144.067,425.667z M144.067,374.467c-5.12,0-8.533-3.413-8.533-8.533v-17.067
		c0-5.12,3.413-8.533,8.533-8.533c5.12,0,8.533,3.413,8.533,8.533v17.067C152.6,371.053,149.187,374.467,144.067,374.467z
		 M144.067,323.267c-5.12,0-8.533-3.413-8.533-8.533v-17.067c0-5.12,3.413-8.533,8.533-8.533c5.12,0,8.533,3.413,8.533,8.533v17.067
		C152.6,319.853,149.187,323.267,144.067,323.267z M144.067,272.067c-5.12,0-8.533-3.413-8.533-8.533v-17.067
		c0-5.12,3.413-8.533,8.533-8.533c5.12,0,8.533,3.413,8.533,8.533v17.067C152.6,268.653,149.187,272.067,144.067,272.067z
		 M144.067,220.867c-5.12,0-8.533-3.413-8.533-8.533v-17.067c0-5.12,3.413-8.533,8.533-8.533c5.12,0,8.533,3.413,8.533,8.533v17.067
		C152.6,217.453,149.187,220.867,144.067,220.867z M144.067,169.667c-5.12,0-8.533-3.413-8.533-8.533v-17.067
		c0-5.12,3.413-8.533,8.533-8.533c5.12,0,8.533,3.413,8.533,8.533v17.067C152.6,166.253,149.187,169.667,144.067,169.667z
		 M144.067,118.467c-5.12,0-8.533-3.413-8.533-8.533V92.867c0-5.12,3.413-8.533,8.533-8.533c5.12,0,8.533,3.413,8.533,8.533v17.067
		C152.6,115.053,149.187,118.467,144.067,118.467z M144.067,67.267c-5.12,0-8.533-3.413-8.533-8.533V41.667
		c0-5.12,3.413-8.533,8.533-8.533c5.12,0,8.533,3.413,8.533,8.533v17.067C152.6,63.853,149.187,67.267,144.067,67.267z"/>
	<path d="M195.267,374.467c-5.12,0-8.533-3.413-8.533-8.533v-17.067c0-5.12,3.413-8.533,8.533-8.533c5.12,0,8.533,3.413,8.533,8.533
		v17.067C203.8,371.053,200.387,374.467,195.267,374.467z M195.267,323.267c-5.12,0-8.533-3.413-8.533-8.533v-17.067
		c0-5.12,3.413-8.533,8.533-8.533c5.12,0,8.533,3.413,8.533,8.533v17.067C203.8,319.853,200.387,323.267,195.267,323.267z
		 M195.267,272.067c-5.12,0-8.533-3.413-8.533-8.533v-17.067c0-5.12,3.413-8.533,8.533-8.533c5.12,0,8.533,3.413,8.533,8.533v17.067
		C203.8,268.653,200.387,272.067,195.267,272.067z M195.267,220.867c-5.12,0-8.533-3.413-8.533-8.533v-17.067
		c0-5.12,3.413-8.533,8.533-8.533c5.12,0,8.533,3.413,8.533,8.533v17.067C203.8,217.453,200.387,220.867,195.267,220.867z
		 M195.267,169.667c-5.12,0-8.533-3.413-8.533-8.533v-17.067c0-5.12,3.413-8.533,8.533-8.533c5.12,0,8.533,3.413,8.533,8.533v17.067
		C203.8,166.253,200.387,169.667,195.267,169.667z M195.267,118.467c-5.12,0-8.533-3.413-8.533-8.533V92.867
		c0-5.12,3.413-8.533,8.533-8.533c5.12,0,8.533,3.413,8.533,8.533v17.067C203.8,115.053,200.387,118.467,195.267,118.467z
		 M195.267,67.267c-5.12,0-8.533-3.413-8.533-8.533V41.667c0-5.12,3.413-8.533,8.533-8.533c5.12,0,8.533,3.413,8.533,8.533v17.067
		C203.8,63.853,200.387,67.267,195.267,67.267z"/>
	<path d="M246.467,118.467c-5.12,0-8.533-3.413-8.533-8.533V92.867c0-5.12,3.413-8.533,8.533-8.533c5.12,0,8.533,3.413,8.533,8.533
		v17.067C255,115.053,251.587,118.467,246.467,118.467z M246.467,67.267c-5.12,0-8.533-3.413-8.533-8.533V41.667
		c0-5.12,3.413-8.533,8.533-8.533c5.12,0,8.533,3.413,8.533,8.533v17.067C255,63.853,251.587,67.267,246.467,67.267z"/>
	<path d="M457.24,511H289.133c-2.56,0-5.12-0.853-6.827-3.413c-6.827-9.387-10.24-19.627-10.24-30.72c0-28.16,23.04-51.2,51.2-51.2
		c16.213,0,30.72,7.68,40.96,20.48c11.093-12.8,27.307-20.48,44.373-20.48c33.28,0,59.733,26.453,59.733,59.733
		c0,6.827-0.853,13.653-3.413,19.627C464.067,508.44,460.653,511,457.24,511z M294.253,493.933h156.16
		c0.853-2.56,0.853-5.973,0.853-8.533c0-23.893-18.773-42.667-42.667-42.667c-16.213,0-30.72,8.533-37.547,23.04
		c-1.707,3.413-4.267,5.12-7.68,4.267c-3.413,0-5.973-2.56-7.68-5.12c-5.973-13.653-18.773-22.187-32.427-22.187
		c-18.773,0-34.133,15.36-34.133,34.133C289.133,482.84,290.84,488.813,294.253,493.933z"/>
	<path d="M289.133,511h-204.8c-5.12,0-8.533-3.413-8.533-8.533c0-29.867,22.187-55.467,52.053-58.88
		c4.267-29.013,29.013-52.053,58.88-52.053c23.893,0,45.227,14.507,54.613,35.84c8.533-6.827,19.627-10.24,30.72-10.24
		c14.507,0,27.307,5.973,37.547,16.213c1.707,1.707,2.56,4.267,2.56,6.827s-1.707,5.12-4.267,5.973
		c-11.093,5.973-17.92,17.067-17.92,29.867c0,6.827,2.56,14.507,6.827,20.48c1.707,2.56,2.56,5.973,0.853,9.387
		C295.96,509.293,292.547,511,289.133,511z M93.72,493.933h181.76c-1.707-5.12-3.413-11.093-3.413-17.067
		c0-14.507,5.973-28.16,17.067-38.4c-5.12-3.413-11.093-4.267-17.067-4.267c-11.093,0-21.333,5.12-28.16,14.507
		c-1.707,2.56-5.12,4.267-8.533,3.413c-3.413-0.853-5.973-3.413-6.827-6.827c-2.56-21.333-20.48-36.693-41.813-36.693
		c-23.893,0-42.667,18.773-42.667,42.667c0,5.12-3.413,8.533-8.533,8.533C115.053,459.8,97.987,474.307,93.72,493.933z"/>
	<path d="M363.373,470.893C362.52,470.893,362.52,470.893,363.373,470.893c-4.267,0-6.827-2.56-7.68-5.12
		c-6.827-18.773-29.013-28.16-47.787-17.92c-3.413,1.707-7.68,0.853-10.24-1.707c-6.827-7.68-16.213-11.947-25.6-11.947
		c-11.093,0-20.48,5.12-27.307,13.653c-2.56,2.56-5.973,4.267-9.387,3.413c-3.413-1.707-5.973-4.267-5.973-8.533V144.067
		c0-5.12,3.413-8.533,8.533-8.533h187.733c5.12,0,8.533,3.413,8.533,8.533V436.76c0,2.56-1.707,5.12-3.413,6.827
		c-2.56,1.707-5.12,1.707-7.68,0.853c-20.48-6.827-42.667,1.707-52.053,20.48C369.347,468.333,365.933,470.893,363.373,470.893z
		 M323.267,425.667c16.213,0,30.72,7.68,40.96,20.48c12.8-14.507,33.28-22.187,52.907-19.627V152.6H246.467v271.36
		c7.68-4.267,16.213-6.827,25.6-6.827c11.947,0,23.893,4.267,33.28,11.947C310.467,426.52,317.293,425.667,323.267,425.667z"/>
	<path d="M84.333,511h-25.6c-5.12,0-8.533-3.413-8.533-8.533V7.533C50.2,2.413,53.613-1,58.733-1h230.4
		c5.12,0,8.533,3.413,8.533,8.533v136.533c0,5.12-3.413,8.533-8.533,8.533h-42.667v290.133c0,1.707-0.853,3.413-1.707,5.12
		l-0.853,0.853c-1.707,2.56-5.12,4.267-8.533,3.413c-3.413-0.853-5.973-3.413-5.973-6.827
		c-3.413-21.333-21.333-36.693-42.667-36.693c-23.893,0-42.667,18.773-42.667,42.667c0,5.12-3.413,8.533-8.533,8.533
		c-23.893,0-42.667,18.773-42.667,42.667C92.867,507.587,89.453,511,84.333,511z M67.267,493.933h9.387
		c3.413-26.453,24.747-46.933,51.2-50.347c4.267-29.013,29.013-52.053,58.88-52.053c16.213,0,31.573,6.827,42.667,17.92V144.067
		c0-5.12,3.413-8.533,8.533-8.533H280.6V16.067H67.267V493.933z"/>
</g>
<g>
</g>
<g>
</g>
<g>
</g>
<g>
</g>
<g>
</g>
<g>
</g>
<g>
</g>
<g>
</g>
<g>
</g>
<g>
</g>
<g>
</g>
<g>
</g>
<g>
</g>
<g>
</g>
<g>
</g>
</svg>
